<svg width="301" height="365" viewBox="0 0 301 365" fill="none" xmlns="http://www.w3.org/2000/svg">
<g clip-path="url(#clip0_668_628)">
<g filter="url(#filter0_d_668_628)">
<path d="M176.249 12.9175C193.649 27.8627 201.069 49.8739 202.777 72.2826C204.277 97.8276 199.421 124.283 184.155 145.38C183.316 146.631 183.316 146.631 183.746 147.75C183.99 148.083 184.234 148.416 184.486 148.759C184.761 149.178 185.036 149.598 185.319 150.031C185.645 150.507 185.971 150.984 186.307 151.474C187.066 152.612 187.823 153.751 188.575 154.893C188.773 155.194 188.97 155.494 189.174 155.804C189.783 156.741 190.38 157.683 190.97 158.632C191.269 159.111 191.269 159.111 191.574 159.6C192.745 161.569 193.453 163.375 193.986 165.597C194.61 168.151 195.204 170.059 197.451 171.518C198.844 172.302 200.277 172.992 201.715 173.689C210.383 177.964 215.533 186.193 218.678 195.046C219.865 198.624 220.923 202.241 221.986 205.857C222.336 207.031 222.685 208.204 223.036 209.377C226.922 222.455 230.618 235.588 234.299 248.725C234.894 250.85 235.496 252.974 236.105 255.096C236.438 253.328 236.767 251.56 237.095 249.792C237.188 249.298 237.281 248.804 237.377 248.296C238.213 243.765 238.733 239.319 238.724 234.71C238.726 233.747 238.726 233.747 238.728 232.765C238.699 231.071 238.565 229.4 238.41 227.713C238.089 224.038 238.017 220.376 237.989 216.689C237.967 215.697 237.967 215.697 237.944 214.686C237.916 210.444 238.137 206.404 240.987 203.033C244.325 199.769 250.082 197.319 254.713 197.33C255.329 197.35 255.945 197.369 256.579 197.39C262.558 197.264 267.436 193.697 272.391 190.68C273.901 189.771 275.413 188.867 276.927 187.964C277.271 187.757 277.616 187.55 277.971 187.336C282.793 184.484 288.382 181.441 294.048 181.318C294.621 181.299 295.194 181.28 295.784 181.26C297.801 181.526 298.606 182.046 299.989 183.523C300.873 185.938 300.2 187.586 299.208 189.853C296.827 194.086 292.927 196.529 288.835 198.93C286.7 200.182 284.656 201.555 282.612 202.95C282.884 203.124 283.155 203.297 283.435 203.477C286.032 205.259 287.947 206.968 288.745 210.107C288.697 211.223 288.697 211.223 288.522 212.312C288.427 212.934 288.332 213.556 288.234 214.197C288.937 214.985 288.937 214.985 289.767 215.73C289.99 217.109 290.155 218.435 290.278 219.82C290.497 221.037 290.739 222.212 291.103 223.393C291.967 226.463 291.772 228.728 290.278 231.579C289.55 232.477 289.55 232.477 288.745 233.112C288.239 233.112 287.733 233.112 287.212 233.112C287.18 233.982 287.18 233.982 287.148 234.87C286.743 238 285.115 240.507 282.756 242.572C280.215 244.29 277.353 245.227 274.461 246.197C271.33 247.641 269.884 249.963 268.59 253.051C268.44 253.403 268.29 253.755 268.136 254.117C265.138 261.426 263.258 269.113 262.313 276.947C262.216 277.722 262.11 278.495 261.994 279.267C261.64 281.632 261.364 283.89 261.658 286.281C262.576 287.478 263.401 288.038 264.715 288.763C266.305 289.665 266.756 290.703 267.28 292.416C267.241 294.551 266.916 295.755 265.795 297.578C264.477 299.83 264.001 302.15 263.479 304.685C263.32 305.417 263.32 305.417 263.158 306.162C262.71 308.228 262.278 310.298 261.848 312.368C259.2 325.093 254.631 343.893 242.878 351.619C235.94 355.392 228.358 355.541 220.836 353.381C218.045 352.44 214.728 351.296 212.595 349.163C212.533 349.705 212.471 350.246 212.408 350.805C212.321 351.514 212.235 352.224 212.148 352.933C212.108 353.291 212.068 353.648 212.026 354.016C211.689 356.716 211.689 356.716 210.551 357.854C208.925 358.165 207.338 358.397 205.696 358.589C205.155 358.653 204.615 358.717 204.058 358.782C189.964 360.317 175.666 360.974 161.496 361.328C159.415 361.381 157.334 361.434 155.253 361.495C132.807 362.145 110.35 362.022 87.8968 362.01C83.9973 362.008 80.0979 362.008 76.1984 362.011C28.3461 362.036 28.3461 362.036 6.63269 361.433C6.49566 361.844 6.35863 362.255 6.21744 362.679C6.01717 363.111 5.81689 363.543 5.61054 363.989C4.07732 364.5 4.07732 364.5 2.99129 364.117C2.03303 363.478 2.03303 363.478 1.52196 361.944C1.4435 360.665 1.39166 359.397 1.362 358.117C1.35115 357.726 1.34031 357.335 1.32914 356.932C1.29375 355.627 1.26197 354.322 1.23049 353.017C1.20685 352.096 1.18314 351.174 1.15935 350.253C1.08379 347.269 1.01484 344.286 0.947 341.303C0.935358 340.798 0.923715 340.293 0.91172 339.772C-0.0720528 296.908 2.35301 257.509 19.9206 217.775C20.3955 216.687 20.8699 215.599 21.344 214.51C22.2946 212.333 23.2533 210.159 24.2188 207.988C25.0387 206.143 25.8436 204.293 26.6264 202.432C30.0227 194.414 34.2017 187.659 40.3635 181.478C40.628 181.197 40.8925 180.917 41.1651 180.628C43.4386 178.258 45.8924 176.356 48.6046 174.512C49.0274 174.223 49.4502 173.933 49.8859 173.635C53.2079 171.421 56.4476 169.823 60.2954 168.697C60.1287 168.398 59.962 168.098 59.7903 167.79C58.9477 165.935 59.1033 164.419 59.7843 162.562C62.6954 158.104 67.3099 155.063 71.5774 152.018C72.2467 151.54 72.9117 151.055 73.5728 150.565C76.0269 148.759 76.0269 148.759 77.1608 148.759C77.3505 148.173 77.3505 148.173 77.5441 147.576C77.9098 146.497 78.2889 145.422 78.706 144.361C78.8918 143.883 79.0776 143.404 79.269 142.911C79.4495 142.458 79.63 142.006 79.816 141.539C80.5202 139.019 80.6299 137.232 79.3648 134.897C78.9748 134.357 78.5848 133.818 78.1829 133.262C71.5981 123.657 68.3075 112.078 66.4283 100.702C66.3373 100.166 66.3373 100.166 66.2446 99.6197C62.3802 75.9258 68.5788 51.8833 82.4672 32.5282C88.3029 24.6388 95.4938 17.5894 103.737 12.2585C104.07 12.0401 104.404 11.8217 104.747 11.5967C126.57 -2.49978 155.465 -4.27416 176.249 12.9175Z" fill="#010101"/>
</g>
<path d="M70.4965 170.289C72.1801 171.144 73.86 172.004 75.5318 172.882C76.1231 173.178 76.7143 173.474 77.3235 173.778C77.8845 174.07 78.4455 174.361 79.0234 174.662C79.5365 174.927 80.0496 175.192 80.5783 175.465C81.7605 176.365 81.7605 176.365 82.2228 177.62C82.2722 178.938 82.1469 179.763 81.7006 180.994C81.5611 181.387 81.4216 181.78 81.2779 182.184C81.1209 182.605 80.9639 183.025 80.8022 183.459C80.6426 183.902 80.483 184.345 80.3186 184.802C78.8563 188.819 77.2557 192.782 75.6647 196.75C74.3982 199.963 73.4352 203.052 72.8347 206.46C72.7444 206.82 72.6542 207.18 72.5612 207.551C71.0589 208.302 69.6227 208.062 67.9615 208.062C67.4555 208.315 67.4555 208.315 66.9394 208.573C66.9288 209.237 66.9183 209.902 66.9074 210.586C66.9015 210.96 66.8956 211.333 66.8895 211.718C66.8343 212.672 66.8343 212.672 67.4504 213.174C68.1391 213.292 68.8323 213.385 69.5267 213.462C70.1907 213.536 70.8548 213.609 71.539 213.685C71.5832 214.199 71.6273 214.712 71.6728 215.241C72.3521 222.197 74.7856 227.854 77.764 234.119C79.9155 238.665 81.8824 243.023 80.385 248.118C79.5402 250.176 78.4786 251.856 77.0969 253.594C74.5863 256.803 74.2825 260.29 74.6055 264.298C75.0591 266.804 75.6577 269.271 76.2664 271.743C76.4328 272.434 76.5987 273.126 76.7642 273.818C77.2301 275.759 77.7052 277.697 78.183 279.635C78.2942 280.087 78.4055 280.538 78.5201 281.004C78.932 282.669 79.3501 284.333 79.7741 285.995C80.0957 287.287 80.4039 288.576 80.6964 289.874C81.8931 295.171 83.3807 300.343 84.9732 305.535C85.5129 307.303 86.0357 309.076 86.5518 310.852C86.7139 311.406 86.8759 311.961 87.0429 312.532C87.3823 313.888 87.3823 313.888 87.3823 315.421C86.539 315.759 85.6957 316.096 84.8269 316.444C84.2841 318.869 84.2841 318.869 84.795 321.237C85.9758 322.167 86.4979 322.225 87.9592 322.375C88.9386 322.476 88.9386 322.476 89.9377 322.579C90.2539 323.482 90.2539 323.482 90.5765 324.404C91.3766 326.686 92.1818 328.967 92.9884 331.247C93.3336 332.225 93.6775 333.204 94.02 334.183C95.7911 339.242 97.6121 344.26 99.7758 349.167C99.9378 349.536 100.1 349.906 100.267 350.287C101.245 352.45 102.302 354.423 103.737 356.32C104.074 356.32 104.411 356.32 104.759 356.32C104.496 352.519 103.547 349.258 102.289 345.672C102.091 345.094 101.893 344.516 101.688 343.921C101.264 342.685 100.837 341.45 100.409 340.216C99.4002 337.309 98.4042 334.397 97.4076 331.485C97.075 330.514 96.7418 329.543 96.4086 328.572C93.8465 321.096 91.3922 313.587 89.0014 306.054C88.6265 304.874 88.2501 303.693 87.8714 302.514C84.3683 291.579 81.6154 280.41 79.2051 269.186C79.099 268.703 78.9928 268.22 78.8835 267.722C77.898 262.964 77.5829 259.305 80.2273 255.096C80.756 254.305 81.2884 253.517 81.8244 252.731C84.0273 249.47 84.6682 246.714 84.3158 242.826C83.3341 237.828 81.1124 233.44 78.8897 228.9C73.4242 217.455 75.1139 208.086 79.1905 196.548C80.024 194.206 80.8753 191.871 81.7269 189.536C83.0015 186.021 84.1742 182.474 85.338 178.921C87.8263 179.226 89.7298 180.314 91.8861 181.509C92.2402 181.702 92.5943 181.895 92.9592 182.094C93.8276 182.567 94.6937 183.044 95.5595 183.522C95.5636 183.839 95.5677 184.156 95.572 184.483C95.759 198.601 95.9751 212.711 96.5816 226.818C96.603 227.319 96.6243 227.821 96.6463 228.338C97.0545 238.898 97.0545 238.898 98.0829 249.408C98.4483 252.309 98.7226 255.205 98.9321 258.121C99.9514 272.251 101.772 286.331 103.833 300.344C104.665 306.008 105.414 311.679 106.116 317.361C106.573 321.002 107.134 324.599 107.825 328.202C108.074 329.565 108.317 330.929 108.56 332.292C108.625 332.654 108.69 333.017 108.758 333.39C109.113 335.388 109.434 337.385 109.708 339.396C110.479 347.072 110.479 347.072 114.222 353.464C118.214 356.266 123.147 355.593 127.789 355.489C128.749 355.476 129.708 355.464 130.668 355.452C132.709 355.425 134.749 355.389 136.789 355.35C139.568 355.299 142.345 355.287 145.124 355.284C147.371 355.281 149.618 355.264 151.864 355.245C152.953 355.238 154.042 355.235 155.131 355.237C156.658 355.239 158.184 355.221 159.711 355.198C160.165 355.203 160.618 355.207 161.086 355.212C163.395 355.176 163.395 355.176 165.398 354.15C168.634 350.469 168.302 345.485 168.419 340.855C168.45 339.777 168.483 338.699 168.517 337.62C168.536 336.913 168.536 336.913 168.554 336.192C168.643 334.848 168.643 334.848 168.889 333.67C169.168 332.221 169.293 330.82 169.389 329.347C169.448 328.467 169.448 328.467 169.507 327.57C169.547 326.932 169.588 326.294 169.629 325.636C169.673 324.952 169.717 324.267 169.761 323.583C169.879 321.747 169.993 319.911 170.107 318.076C170.175 316.977 170.244 315.879 170.313 314.781C171.718 292.484 172.429 270.217 172.442 247.875C172.444 246.152 172.448 244.429 172.453 242.707C172.485 228.782 172.071 214.951 171.116 201.058C170.22 187.907 170.22 187.907 172.011 185.434C172.565 184.834 173.135 184.25 173.722 183.682C174.291 183.084 174.86 182.486 175.429 181.887C175.888 181.414 176.347 180.942 176.82 180.455C176.989 180.118 177.157 179.78 177.331 179.433C177.668 179.433 178.006 179.433 178.353 179.433C178.698 180.346 178.698 180.346 179.05 181.278C179.382 182.154 179.714 183.03 180.046 183.906C180.225 184.377 180.404 184.849 180.588 185.335C181.674 188.189 182.781 191.034 183.911 193.871C184.284 194.81 184.284 194.81 184.665 195.769C185.153 196.994 185.644 198.219 186.137 199.442C190.149 209.53 192.447 221.215 188.064 231.579C187.912 231.943 187.761 232.308 187.605 232.683C187.25 233.509 186.891 234.334 186.531 235.157C186.137 236.356 186.137 236.356 186.019 237.713C185.952 238.221 185.952 238.221 185.884 238.738C185.454 244.666 189.021 250.51 191.539 255.707C199.287 273.833 185.474 308.002 181.3 326.683C180.425 330.6 179.604 334.526 178.801 338.459C178.544 339.711 178.287 340.963 178.03 342.215C177.851 343.086 177.851 343.086 177.669 343.974C177.376 345.371 177.067 346.762 176.748 348.152C176.383 349.776 176.13 351.369 175.99 353.029C175.951 353.462 175.913 353.895 175.874 354.341C175.849 354.657 175.824 354.973 175.798 355.298C176.641 355.129 177.484 354.96 178.353 354.787C178.469 354.264 178.469 354.264 178.586 353.73C180.024 347.217 181.475 340.707 182.985 334.209C184.285 328.606 185.529 322.993 186.734 317.368C186.947 316.374 187.161 315.38 187.376 314.386C188.466 309.336 189.508 304.276 190.543 299.214C190.84 297.766 191.137 296.319 191.435 294.871C192.421 290.059 193.386 285.244 194.31 280.42C194.395 279.982 194.479 279.544 194.566 279.093C196.701 267.845 196.461 257.973 191.098 247.766C190.932 247.446 190.765 247.125 190.593 246.794C190.161 245.992 189.69 245.212 189.214 244.435C187.587 240.336 188.721 236.609 190.332 232.697C195.406 219.922 191.732 206.939 186.531 194.77C185.259 191.863 183.977 188.961 182.655 186.077C182.421 185.559 182.186 185.041 181.945 184.507C181.733 184.045 181.52 183.583 181.302 183.108C181.172 182.738 181.042 182.369 180.909 181.989C181.077 181.651 181.246 181.314 181.42 180.966C181.757 181.304 182.094 181.641 182.442 181.989C184.264 181.905 184.264 181.905 186.019 181.478C186.712 180.093 186.564 178.917 186.531 177.388C185.35 176.882 184.169 176.375 182.953 175.854C182.953 175.685 182.953 175.517 182.953 175.343C185.713 175.177 187.164 175.66 189.597 176.876C191.45 177.132 191.45 177.132 193.174 176.876C193.695 176.375 194.208 175.865 194.708 175.343C200.312 175.913 205.026 181.043 208.507 185.056C212.704 190.665 214.891 196.756 216.684 203.461C216.99 204.537 217.299 205.613 217.61 206.688C218.254 208.937 218.887 211.188 219.509 213.444C221.061 219.059 222.673 224.645 224.414 230.205C226.027 235.368 227.419 240.549 228.679 245.808C229.083 247.463 229.527 249.106 229.972 250.75C230.806 253.854 231.611 256.964 232.399 260.08C232.57 260.748 232.57 260.748 232.745 261.429C232.849 261.846 232.954 262.263 233.062 262.692C233.203 263.249 233.203 263.249 233.347 263.818C233.549 264.809 233.549 264.809 233.549 266.343C233.187 266.604 232.825 266.866 232.451 267.136C230.344 268.946 229.359 271.138 228.119 273.596C227.854 274.112 227.59 274.628 227.317 275.16C224.612 280.507 222.212 285.982 219.857 291.49C219.291 292.807 218.714 294.117 218.129 295.425C217.881 295.982 217.881 295.982 217.628 296.551C217.201 297.506 216.774 298.462 216.346 299.417C215.129 302.422 214.509 304.983 214.576 308.232C214.585 308.817 214.594 309.401 214.604 310.003C214.615 310.442 214.627 310.88 214.64 311.331C215.314 311.331 215.989 311.331 216.684 311.331C216.765 311.051 216.846 310.771 216.929 310.483C218.918 303.723 221.246 297.222 224.009 290.746C227.081 283.54 229.974 276.308 232.527 268.899C233.535 270.411 233.931 271.55 234.444 273.276C237.226 281.749 243.563 288.45 251.413 292.544C254.583 294.139 257.727 295.528 261.147 296.506C260.93 298.189 260.435 299.524 259.698 301.031C258.319 304.09 257.626 307.276 256.867 310.533C254.749 319.25 252.376 327.073 247.859 334.848C247.53 334.346 247.53 334.346 247.194 333.834C246.908 333.494 246.621 333.154 246.326 332.803C244.729 332.633 244.729 332.633 243.26 332.803C242.912 334.029 242.912 334.029 242.749 335.36C243.954 336.566 244.68 336.633 246.326 336.893C245.027 341.051 241.704 344.699 238.149 347.118C235.489 348.303 232.96 348.319 230.099 348.3C229.643 348.298 229.187 348.295 228.717 348.293C222.98 348.19 218.347 346.684 214.128 342.677C213.106 341.494 213.106 341.494 213.106 340.472C212.6 340.303 212.094 340.135 211.573 339.961C210.907 336.976 210.876 334.012 210.778 330.964C210.756 330.31 210.735 329.657 210.712 328.984C210.472 321.222 210.485 313.459 210.499 305.694C210.502 303.598 210.503 301.503 210.503 299.408C210.505 295.467 210.509 291.525 210.514 287.584C210.52 283.086 210.523 278.588 210.525 274.09C210.531 264.861 210.539 255.633 210.551 246.404C210.268 248.49 209.986 250.576 209.706 252.661C209.611 253.369 209.515 254.076 209.419 254.783C208.631 260.588 208.009 266.375 207.644 272.222C207.599 272.913 207.599 272.913 207.552 273.618C206.535 289.395 206.582 305.241 206.462 321.045C205.113 321.214 203.764 321.382 202.374 321.556C202.346 322.302 202.326 323.047 202.31 323.793C202.298 324.208 202.286 324.623 202.274 325.051C202.265 326.266 202.265 326.266 203.396 327.18C204.576 327.348 205.757 327.517 206.973 327.691C207.142 334.439 207.311 341.188 207.484 348.14C206.473 348.478 205.461 348.815 204.418 349.163C204.311 351.28 204.311 351.28 204.929 353.253C205.414 353.221 205.899 353.19 206.398 353.157C206.926 353.189 207.453 353.22 207.996 353.253C208.333 353.759 208.67 354.265 209.018 354.787C210.338 354.914 210.338 354.914 211.573 354.787C211.126 357.279 211.126 357.279 210.551 357.854C194.506 360.587 177.74 360.922 161.496 361.328C159.415 361.381 157.334 361.434 155.253 361.495C132.816 362.145 110.369 362.022 87.9257 362.01C84.0295 362.008 80.1332 362.008 76.237 362.01C28.445 362.036 28.445 362.036 6.12165 361.433C5.75837 356.345 5.53761 351.294 5.56066 346.191C5.56139 345.567 5.56211 344.944 5.56285 344.301C5.56567 342.343 5.57208 340.385 5.57863 338.427C5.5812 337.085 5.58353 335.743 5.58562 334.401C5.5912 331.142 5.59971 327.883 5.61057 324.624C6.6225 324.455 7.63442 324.286 8.67701 324.112C8.67701 323.1 8.67701 322.088 8.67701 321.045C7.66509 320.876 6.65316 320.708 5.61057 320.534C5.58419 316.681 5.56656 312.829 5.55442 308.976C5.54935 307.671 5.54243 306.367 5.53346 305.062C5.46587 294.96 6.00707 285.067 7.14379 275.034C7.713 274.97 8.28221 274.907 8.86866 274.842C10.7372 274.703 10.7372 274.703 11.7435 273.5C11.9138 271.966 11.9138 271.966 11.7435 270.433C10.6505 269.339 10.1424 269.192 8.67701 268.899C8.44616 265.41 9.28934 262.264 10.1463 258.898C10.306 258.269 10.4657 257.641 10.6302 256.993C14.0145 244.02 18.8248 231.646 24.0092 219.309C24.3465 219.309 24.6838 219.309 25.0314 219.309C25.0314 219.646 25.0314 219.984 25.0314 220.331C26.5492 220.331 28.0671 220.331 29.631 220.331C29.7163 218.84 29.7163 218.84 29.631 217.264C28.4251 216.058 27.6997 215.99 26.0535 215.73C26.349 213.497 26.9033 211.653 27.8123 209.596C28.1935 208.731 28.1935 208.731 28.5823 207.848C28.9907 206.942 28.9907 206.942 29.4074 206.017C29.5463 205.707 29.6852 205.398 29.8282 205.078C37.3279 188.389 46.7405 178.027 63.3618 170.742C63.8039 170.535 64.246 170.329 64.7014 170.117C66.7805 169.437 68.4509 169.519 70.4965 170.289Z" fill="#FDFDFD"/>
<path d="M107.315 81.7864C109.107 82.5199 110.547 83.4861 111.914 84.8538C112.613 85.0189 113.317 85.1648 114.022 85.3011C118.155 86.2242 118.155 86.2242 120.091 87.41C120.611 88.8697 120.895 89.9993 121.114 91.4999C122.137 96.4517 123.856 100.888 127.757 104.281C132.301 107.143 136.901 108.119 142.181 106.999C148.362 105.256 153.255 102.096 156.557 96.4544C158.18 92.8993 158.311 89.2269 158.422 85.365C160.272 84.9402 161.986 84.7847 163.884 84.7899C164.614 84.7879 164.614 84.7879 165.359 84.7859C166.599 84.8538 166.599 84.8538 167.621 85.365C168.02 86.698 168.364 88.0056 168.675 89.3591C168.764 89.7297 168.853 90.1004 168.944 90.4824C169.187 91.5025 169.427 92.5236 169.665 93.5448C169.835 94.2267 170.005 94.9084 170.177 95.5897C169.797 95.421 169.418 95.2523 169.027 95.0785C167.55 94.4508 167.55 94.4508 165.577 94.5673C166.373 96.521 167.639 97.7299 169.154 99.1684C169.665 99.6796 169.665 99.6796 169.825 101.629C169.798 103.172 169.71 103.699 168.867 105.048C167.063 106.158 166.142 106.158 164.044 105.814C162.818 105.068 161.697 104.262 160.574 103.368C159.449 102.608 159.449 102.608 158.027 102.909C157.651 103.024 157.276 103.139 156.889 103.258C156.889 104.102 156.889 104.945 156.889 105.814C157.611 106.233 158.335 106.647 159.061 107.061C159.666 107.408 159.666 107.408 160.283 107.762C162.79 109.028 165.362 109.223 168.132 108.882C170.662 107.664 171.757 106.387 172.732 103.77C173.097 101.859 173.097 101.859 173.243 100.191C173.697 100.505 173.697 100.505 174.159 100.826C174.765 101.239 174.765 101.239 175.383 101.661C175.78 101.933 176.178 102.206 176.587 102.487C178.927 103.924 180.889 104.42 183.624 104.6C184.17 104.638 184.716 104.677 185.279 104.716C185.692 104.741 186.105 104.766 186.531 104.792C186.27 108.122 185.643 110.943 184.455 114.058C184.217 114.687 184.217 114.687 183.975 115.329C181.588 121.487 178.618 126.88 174.265 131.887C174.033 132.193 173.8 132.499 173.56 132.814C169.558 137.978 163.867 141.25 157.911 143.646C157.489 143.83 157.068 144.015 156.633 144.205C148.245 147.247 137.452 145.654 129.514 142.025C123.91 139.361 118.719 136.396 113.959 132.399C113.33 131.885 112.701 131.371 112.072 130.857C111.422 130.318 110.773 129.777 110.125 129.235C109.674 128.862 109.674 128.862 109.214 128.481C101.485 121.869 98.7612 108.373 97.6042 98.6572C96.6914 86.477 96.6914 86.477 99.2432 82.3136C101.571 80.9741 104.748 81.4718 107.315 81.7864Z" fill="#FCFCFC"/>
<path d="M260.381 201.096C263.245 204.105 264.903 208.066 264.834 212.214C264.725 213.174 264.725 213.174 264.118 214.229C263.191 214.708 263.191 214.708 262.042 214.772C260.517 214.148 259.948 213.54 258.847 212.343C257.963 211.374 257.963 211.374 257.059 210.618C255.7 210.489 255.7 210.489 254.503 211.129C252.613 211.905 250.912 212.38 248.881 212.663C249.05 213.506 249.219 214.35 249.392 215.219C251.79 214.93 254.168 214.613 256.548 214.197C256.236 215.935 255.592 216.973 254.503 218.35C252.706 220.641 252.142 221.917 252.459 224.933C252.881 225.165 253.302 225.397 253.737 225.636C254.158 225.91 254.58 226.184 255.014 226.466C255.167 227.651 255.111 228.727 255.004 229.915C255.016 231.243 255.369 231.98 256.036 233.112C255.747 233.285 255.458 233.458 255.16 233.636C254.785 233.864 254.41 234.092 254.024 234.327C253.464 234.665 253.464 234.665 252.892 235.01C251.877 235.606 251.877 235.606 251.437 236.691C254.147 236.135 254.147 236.135 256.196 234.359C258.172 232.566 260.091 232.656 262.68 232.601C262.817 233.086 262.954 233.571 263.096 234.071C263.575 235.798 263.575 235.798 265.236 236.691C268.266 237.168 270.984 236.472 273.84 235.493C274.946 235.157 274.946 235.157 276.479 235.157C276.722 235.484 276.964 235.811 277.214 236.148C278.128 237.354 278.594 237.512 280.057 237.713C279.214 236.701 278.37 235.689 277.502 234.646C279.525 234.14 279.525 234.14 281.59 233.624C281.421 233.117 281.253 232.611 281.079 232.09C278.188 232.289 275.646 232.809 272.87 233.656C270.188 234.453 268.02 234.967 265.236 234.646C264.73 234.14 264.73 234.14 264.214 233.624C264.295 232.088 264.435 231.329 265.591 230.285C265.965 230.073 266.338 229.86 266.723 229.642C267.35 229.285 267.35 229.285 267.99 228.92C268.441 228.68 268.892 228.439 269.356 228.192C270.041 227.819 270.041 227.819 270.74 227.438C274.792 225.332 278.588 224.347 283.123 223.91C283.123 223.404 283.123 222.898 283.123 222.376C276.785 221.742 270.973 225.241 265.663 228.311C263.135 229.724 260.538 230.926 257.57 230.556C256.678 229.876 256.678 229.876 256.036 229.022C255.941 227.649 255.941 227.649 256.036 226.466C257.001 226.213 257.001 226.213 257.985 225.955C260.657 225.071 262.629 223.578 264.856 221.893C269.111 218.704 273.502 216.859 278.524 215.219C279.03 215.05 279.536 214.882 280.057 214.708C280.057 214.202 280.057 213.696 280.057 213.174C272.882 214.024 267.28 216.937 261.677 221.328C259.254 223.167 257.566 223.839 254.503 223.91C253.992 223.399 253.992 223.399 253.872 222.227C254.013 220.607 254.422 219.921 255.398 218.638C255.658 218.281 255.919 217.925 256.188 217.558C257.059 216.753 257.059 216.753 259.103 216.753C259.609 217.006 259.609 217.006 260.125 217.264C263.491 217.627 263.491 217.627 266.513 216.401C268.429 213.447 268.423 210.997 268.302 207.551C272.567 205.067 276.672 204.194 281.59 204.994C283.164 205.899 284.398 206.781 285.679 208.062C285.862 210.168 285.579 211.328 284.657 213.174C284.571 214.793 284.571 214.793 284.657 216.242C284.983 216.358 285.31 216.474 285.647 216.593C286.701 217.264 286.701 217.264 287.084 218.414C287.212 219.82 287.212 219.82 287.116 221.354C287.066 222.958 287.066 222.958 288.234 224.134C289.256 225.444 289.256 225.444 289.48 227.265C289.248 229.091 289.058 229.827 287.723 231.067C286.605 231.451 286.605 231.451 285.679 231.579C285.637 231.937 285.594 232.296 285.551 232.665C284.672 236.034 282.305 238.31 279.546 240.27C277.679 241.178 275.722 241.8 273.756 242.456C270.164 243.734 267.373 245.401 265.635 248.915C264.312 252.29 263.655 255.867 262.936 259.409C262.821 259.963 262.821 259.963 262.704 260.528C260.69 270.232 259.211 280.014 258.081 289.86C249.245 288.544 241.63 279.014 236.552 272.382C236.255 271.995 235.959 271.608 235.653 271.209C234.567 268.759 235.497 266.5 236.372 264.102C236.685 263.293 237.001 262.485 237.318 261.678C238.782 257.828 239.97 254.046 240.704 249.983C240.828 249.362 240.828 249.362 240.955 248.727C241.714 244.667 241.853 240.766 241.808 236.643C241.804 235.621 241.8 234.598 241.796 233.576C241.79 232.16 241.778 230.744 241.767 229.328C241.747 226.851 241.733 224.373 241.722 221.895C241.716 220.582 241.707 219.269 241.695 217.955C241.636 207.368 241.636 207.368 243.339 204.988C248.581 201.322 253.988 198.584 260.381 201.096Z" fill="#FBFBFB"/>
<path d="M153.963 38.7034C155.467 39.4064 156.774 40.2257 158.148 41.1574C158.68 41.5174 159.212 41.8775 159.76 42.2484C160.325 42.6359 160.891 43.0238 161.456 43.412C161.886 43.7063 161.886 43.7063 162.325 44.0066C168.775 48.4242 174.776 53.0733 180.469 58.4336C183.282 61.2062 183.282 61.2062 186.531 63.3822C186.854 64.7781 186.854 64.7781 187.105 66.5455C187.191 67.1221 187.277 67.6987 187.365 68.2928C187.54 69.9113 187.587 71.4696 187.553 73.0957C183.633 73.5313 183.633 73.5313 181.821 72.3707C181.07 71.7337 180.322 71.0932 179.577 70.4496C177.057 68.5292 174.066 67.6151 170.943 67.2804C169.541 67.3982 169.541 67.3982 168.132 68.4945C167.834 70.0065 167.834 70.0065 168.132 71.562C169.732 73.5103 172.413 73.6889 174.776 74.1181C172.867 75.7782 170.675 76.5809 168.355 77.5051C167.963 77.6646 167.571 77.824 167.167 77.9883C163.485 79.4783 160.404 80.3406 156.377 79.7417C154.839 78.983 153.523 78.0949 152.131 77.0957C150.11 75.7258 147.938 74.9194 145.645 74.1181C146.151 73.3589 146.151 73.3589 146.667 72.5844C146.88 71.0292 146.88 71.0292 146.667 69.517C144.577 68.1231 142.988 68.1799 140.534 68.4945C138.589 69.0945 136.756 69.8657 135.171 71.1647C132.655 73.1966 130.618 73.4955 127.438 73.6389C122.996 73.9555 118.447 74.416 114.525 76.7342C112.924 77.4046 111.466 77.2814 109.742 77.2495C109.096 77.2402 108.45 77.231 107.785 77.2215C107.292 77.2096 106.8 77.1978 106.292 77.1856C108.268 75.1561 110.343 73.2823 112.489 71.4341C112.828 71.1413 113.167 70.8484 113.516 70.5467C115.892 68.4999 118.302 66.4983 120.74 64.5245C122.299 63.2484 123.83 61.9428 125.361 60.6343C127.628 58.7003 129.937 56.8356 132.293 55.0107C135.241 52.7245 138.065 50.3186 140.871 47.8615C143.064 45.9445 145.283 44.0746 147.581 42.2837C148.348 41.6837 149.101 41.0664 149.841 40.4345C150.373 39.9946 150.373 39.9946 150.915 39.5458C151.219 39.2862 151.522 39.0265 151.835 38.759C152.8 38.3316 152.8 38.3316 153.963 38.7034Z" fill="#FCFCFC"/>
<path d="M153.265 81.3932C155.431 83.7415 155.233 87.0204 155.12 90.0383C154.467 94.7125 152.172 98.4251 148.514 101.371C144.44 104.009 139.778 105.681 134.912 104.792C130.145 103.223 127.584 100.423 125.33 96.0693C122.759 90.603 122.759 90.603 123.158 87.4102C124.355 85.192 125.722 83.768 127.757 82.2978C127.926 82.6352 128.094 82.9727 128.268 83.3203C128.606 83.3203 128.943 83.3203 129.29 83.3203C129.522 82.9196 129.754 82.5189 129.993 82.1061C130.912 80.6218 131.238 80.2704 132.868 79.7417C139.078 78.8332 147.768 77.8509 153.265 81.3932Z" fill="#F9F9F9"/>
<path d="M151.522 32.1329C152.178 32.1467 152.178 32.1467 152.848 32.1608C153.169 32.1727 153.491 32.1845 153.822 32.1968C152.441 34.0323 151.028 35.4477 149.222 36.8618C147.101 38.5602 145.074 40.3138 143.089 42.1659C141.216 43.9108 139.309 45.584 137.308 47.1824C134.221 49.6664 131.367 52.3779 128.486 55.0945C127.243 56.2656 125.987 57.4127 124.691 58.5254C122.323 60.5615 120.066 62.7174 117.79 64.8546C116.154 66.3871 114.513 67.9018 112.808 69.3572C110.582 71.2662 108.554 73.3746 106.506 75.4701C104.873 77.0615 104.171 77.6821 101.852 77.7607C101.293 77.7396 100.735 77.7185 100.159 77.6968C102.697 68.8868 108.231 61.7562 114.469 55.2024C114.728 54.9295 114.987 54.6566 115.254 54.3754C119.203 50.2394 123.296 46.4873 127.892 43.0822C128.774 42.4254 129.644 41.7545 130.514 41.0815C136.379 36.6285 143.904 31.9212 151.522 32.1329Z" fill="#FAFAFA"/>
<path d="M52.6294 259.186C52.9668 259.186 53.3041 259.186 53.6516 259.186C53.7759 266.548 53.6476 273.855 53.1725 281.201C53.1502 281.549 53.1279 281.897 53.105 282.255C52.9137 285.204 52.7149 288.145 52.3739 291.081C52.1152 293.356 51.9639 295.627 51.8449 297.914C51.8229 298.316 51.8009 298.718 51.7783 299.132C51.7094 300.397 51.6424 301.663 51.5754 302.928C51.5286 303.794 51.4816 304.66 51.4346 305.525C51.3205 307.631 51.2079 309.737 51.0962 311.843C51.5824 311.832 52.0686 311.82 52.5696 311.809C54.1627 311.843 54.1627 311.843 55.1209 312.386C56.0374 313.965 55.9148 315.172 55.6959 316.955C54.8654 318.201 54.8654 318.201 53.6516 319C52.6299 319.032 51.6067 319.035 50.5852 319C50.5833 319.412 50.5814 319.823 50.5795 320.247C50.5601 324.142 50.5309 328.038 50.4912 331.933C50.4711 333.936 50.4546 335.938 50.4467 337.94C50.4389 339.876 50.4212 341.812 50.3969 343.748C50.3894 344.483 50.3853 345.217 50.3849 345.952C50.3744 354.807 50.3744 354.807 48.0298 357.854C46.7433 358.305 46.7433 358.305 45.4744 358.365C44.4523 357.343 44.4523 357.343 44.3281 356.289C44.3946 342.498 44.9405 328.762 45.9216 315.006C45.9888 314.045 45.9888 314.045 46.0574 313.064C46.6682 304.334 47.3463 295.617 48.2274 286.91C48.2777 286.385 48.3281 285.86 48.3799 285.319C48.4943 284.186 48.6253 283.055 48.7677 281.925C48.8332 281.336 48.8986 280.747 48.9661 280.14C49.0312 279.614 49.0963 279.088 49.1634 278.545C49.0183 276.636 48.2676 275.923 47.0076 274.523C46.249 272.797 46.249 272.797 45.6022 270.944C45.3835 270.332 45.1647 269.721 44.9394 269.091C44.5039 267.548 44.3442 266.395 44.4523 264.809C46.4403 265.575 47.2476 266.703 48.4131 268.452C48.7267 268.917 49.0403 269.382 49.3634 269.862C49.5979 270.219 49.8324 270.576 50.0741 270.944C50.1333 270.642 50.1926 270.341 50.2536 270.03C50.5228 268.662 50.7935 267.295 51.0643 265.927C51.1575 265.453 51.2507 264.978 51.3468 264.489C51.4374 264.032 51.5279 263.576 51.6213 263.106C51.7042 262.685 51.7872 262.265 51.8727 261.832C52.1184 260.719 52.1184 260.719 52.6294 259.186Z" fill="#090909"/>
<path d="M185.508 77.1855C186.352 77.1855 187.195 77.1855 188.064 77.1855C188.077 79.8586 188.086 82.5317 188.092 85.2048C188.094 86.1121 188.098 87.0194 188.102 87.9267C188.149 97.6306 188.149 97.6306 187.553 101.725C186.747 102.531 185.958 102.401 184.838 102.46C180.449 102.428 176.451 99.9891 173.243 97.1237C172.175 95.0621 171.709 93.8334 171.709 91.5002C172.982 90.0551 174.196 88.9902 175.798 87.9215C177.076 87.9535 177.076 87.9535 178.353 88.4327C179.248 89.6789 179.248 89.6789 179.887 90.9889C180.055 91.3263 180.224 91.6637 180.398 92.0114C181.241 91.8427 182.084 91.674 182.953 91.5002C183.131 89.5922 183.102 88.6675 182.059 87.0268C180.315 85.2829 179.228 84.8029 176.788 84.7582C174.825 84.7607 174.825 84.7607 173.243 85.3653C174.252 82.2934 176.284 80.5698 178.864 78.7193C180.685 78.208 180.685 78.208 181.931 78.208C183.464 81.6589 183.464 81.6589 183.464 82.8091C183.97 82.8091 184.476 82.8091 184.997 82.8091C185.166 80.9534 185.335 79.0976 185.508 77.1855Z" fill="#F9F9F9"/>
<path d="M293.952 184.513C294.412 184.518 294.873 184.522 295.347 184.527C295.698 184.533 296.05 184.539 296.411 184.545C296.827 185.599 296.827 185.599 296.922 187.101C294.147 192.271 288.419 194.822 283.411 197.454C282.42 197.976 281.43 198.5 280.442 199.027C280.012 199.254 279.581 199.48 279.138 199.713C278.069 200.359 277.346 201.042 276.479 201.927C275.32 202.247 275.32 202.247 274.02 202.438C272.312 202.729 271.221 203.023 269.644 203.812C268.302 204.483 268.302 204.483 267.278 204.377C266.024 203.879 265.669 203.374 264.948 202.247C264.119 200.968 263.279 199.908 262.169 198.86C265.815 197.036 269.46 195.213 273.106 193.39C273.576 193.155 274.046 192.919 274.53 192.677C275.49 192.197 276.45 191.717 277.41 191.238C279.632 190.127 281.853 189.014 284.072 187.896C284.448 187.707 284.825 187.517 285.213 187.322C285.908 186.972 286.603 186.621 287.297 186.269C289.627 185.097 291.342 184.479 293.952 184.513Z" fill="#FAFAFA"/>
<path d="M280.057 213.174C280.057 213.68 280.057 214.186 280.057 214.708C277.818 215.891 275.658 216.881 273.253 217.679C269.247 219.095 265.886 221.432 262.585 224.07C260.653 225.57 258.942 226.038 256.548 226.466C256.462 227.702 256.462 227.702 256.548 229.022C256.885 229.36 257.222 229.697 257.57 230.045C261.475 230.003 264.094 228.722 267.44 226.818C277.339 221.42 277.339 221.42 283.124 221.865C283.411 222.856 283.411 222.856 283.635 223.91C283.124 224.421 283.124 224.421 281.644 224.609C275.183 225.447 270.242 228.222 264.725 231.579C264.894 232.422 265.062 233.266 265.236 234.135C268.357 234.276 270.782 233.839 273.733 232.857C276.261 232.024 278.376 231.408 281.079 231.579C281.332 232.591 281.332 232.591 281.59 233.623C280.578 234.13 279.566 234.636 278.524 235.157C278.777 235.389 279.03 235.621 279.291 235.86C280.057 236.691 280.057 236.691 280.057 237.713C278.843 237.586 278.843 237.586 277.502 237.202C276.907 236.156 276.907 236.156 276.48 235.157C275.84 235.379 275.84 235.379 275.188 235.604C268.383 237.85 268.383 237.85 265.236 237.202C263.671 236.339 263.671 236.339 262.681 235.157C262.619 233.805 262.619 233.805 262.681 232.601C259.278 232.998 257.24 233.64 254.779 236.044C253.992 236.691 253.992 236.691 252.491 236.883C251.969 236.788 251.969 236.788 251.437 236.691C252.179 234.735 253.165 234.037 255.015 233.112C255.352 233.112 255.689 233.112 256.037 233.112C255.784 232.849 255.531 232.585 255.27 232.313C254.24 230.639 254.36 229.421 254.503 227.489C254.672 227.151 254.841 226.814 255.015 226.466C254.603 226.308 254.192 226.15 253.769 225.987C252.459 225.444 252.459 225.444 251.948 224.932C251.728 221.048 251.728 221.048 252.97 219.309C254.056 218.414 254.056 218.414 255.015 217.775C255.352 217.944 255.689 218.113 256.037 218.286C255.784 218.655 255.531 219.024 255.27 219.405C254.463 220.918 254.359 221.718 254.503 223.399C258.269 223.274 260.263 221.954 263.224 219.724C268.467 215.963 273.418 212.92 280.057 213.174Z" fill="#111111"/>
<path d="M158.933 32.1968C168.835 34.3095 176.543 38.4764 182.442 47.0226C184.629 50.5639 186.618 53.9983 186.02 58.2698C184.391 56.8939 182.778 55.5172 181.222 54.0581C173.495 46.8134 164.778 41.0544 154.844 37.3091C154.844 36.9717 154.844 36.6343 154.844 36.2867C155.599 35.6465 156.356 35.0077 157.14 34.4035C158.047 33.6703 158.047 33.6703 158.933 32.1968Z" fill="#F8F8F8"/>
<path d="M150.244 116.04C151.813 116.621 152.397 117.197 153.471 118.532C155.171 120.635 156.983 121.971 159.679 122.352C162.361 122.445 164.317 122.163 166.599 120.641C166.947 120.272 167.295 119.903 167.653 119.522C168.643 118.596 168.643 118.596 169.953 118.372C171.198 118.596 171.198 118.596 172.157 119.171C172.732 120.129 172.732 120.129 172.859 121.567C171.879 124.068 169.902 124.991 167.621 126.264C167.309 126.457 166.998 126.649 166.677 126.847C163.628 128.065 159.41 127.83 156.361 126.726C153.739 125.244 151.487 123.441 150.244 120.641C149.887 119.221 149.784 118.03 149.733 116.551C149.902 116.382 150.071 116.213 150.244 116.04Z" fill="#080808"/>
<path d="M280.057 213.174C280.057 213.68 280.057 214.186 280.057 214.708C277.817 215.891 275.658 216.881 273.253 217.679C269.261 219.09 265.903 221.396 262.648 224.07C260.475 225.735 258.248 226.343 255.525 226.466C252.877 225.862 252.877 225.862 251.948 224.932C251.728 221.048 251.728 221.048 252.97 219.309C254.056 218.414 254.056 218.414 255.014 217.775C255.352 217.944 255.689 218.113 256.036 218.286C255.783 218.655 255.53 219.024 255.27 219.405C254.463 220.918 254.359 221.718 254.503 223.399C258.269 223.274 260.263 221.954 263.223 219.724C268.466 215.963 273.418 212.92 280.057 213.174Z" fill="#0B0B0B"/>
<path d="M143.6 84.854C146.203 85.8459 148.208 88.189 149.733 90.4776C149.957 92.2669 149.957 92.2669 149.733 93.545C148.553 93.7137 147.372 93.8824 146.156 94.0562C145.976 93.7669 145.796 93.4776 145.611 93.1795C144.306 91.2402 143.505 90.137 141.301 89.2314C139.383 89.4712 139.083 89.6217 137.819 90.9569C136.337 92.9174 135.844 94.7228 135.423 97.1236C134.749 96.9549 134.074 96.7862 133.379 96.6124C132.956 92.929 133.575 90.616 135.525 87.4761C137.823 84.759 140.236 84.4226 143.6 84.854Z" fill="#070707"/>
<path d="M104.248 146.714C105.302 146.522 105.302 146.522 106.803 146.714C107.622 147.41 108.436 148.112 109.229 148.838C115.485 153.958 124.893 157.939 132.9 158.696C134.401 158.983 134.401 158.983 135.136 160.038C135.278 160.528 135.278 160.528 135.424 161.028C134.912 161.539 134.912 161.539 132.886 161.651C130.247 161.618 127.933 161.046 125.426 160.261C124.983 160.125 124.541 159.988 124.085 159.848C117.469 157.719 111.752 154.598 106.292 150.292C105.905 150.042 105.518 149.793 105.118 149.535C104.831 149.279 104.544 149.023 104.248 148.759C104.248 148.084 104.248 147.409 104.248 146.714Z" fill="#F0F0F0"/>
<path d="M95.0487 156.938C96.9766 157.255 98.5742 157.827 100.351 158.631C105.366 160.772 110.68 161.952 116.003 163.073C116.256 164.338 116.256 164.338 116.514 165.629C108.348 165.283 101.625 162.867 94.5376 158.983C94.7063 158.308 94.8749 157.633 95.0487 156.938Z" fill="#EFEFEF"/>
<path d="M257.57 216.242C257.886 216.41 258.202 216.579 258.528 216.753C261.209 217.611 264.095 217.645 266.769 216.753C266.769 217.09 266.769 217.428 266.769 217.775C265.591 218.848 264.245 219.713 262.936 220.619C262.58 220.878 262.225 221.138 261.858 221.405C259.375 223.133 257.541 223.826 254.504 223.91C253.992 223.399 253.992 223.399 253.867 222.225C254.016 220.579 254.463 219.941 255.494 218.67C255.772 218.319 256.051 217.969 256.338 217.608C257.059 216.753 257.059 216.753 257.57 216.242Z" fill="#F3F3F3"/>
<path d="M186.019 176.365C187.042 177.387 187.042 177.387 187.233 178.857C187.042 180.455 187.042 180.455 186.179 181.669C184.997 182.5 184.997 182.5 183.72 182.723C182.114 182.442 181.5 182.183 180.398 180.966C179.923 179.606 179.655 178.297 179.375 176.876C181.931 175.255 183.222 175.235 186.019 176.365Z" fill="#1D1D1D"/>
<path d="M229.461 296.506C230.707 297.304 230.707 297.304 231.505 298.55C231.396 301.727 231.396 301.727 229.972 303.152C228.473 303.294 227.338 303.393 225.883 303.152C224.628 302.092 224.407 301.432 224.126 299.829C224.649 296.843 226.648 296.037 229.461 296.506Z" fill="#0A0A0A"/>
<path d="M44.7398 196.814C46.4966 197.326 46.4966 197.326 47.5188 198.188C48.2287 199.831 48.058 200.748 47.5188 202.438C46.6563 203.429 46.6563 203.429 45.4745 203.972C43.6858 203.935 42.7695 203.798 41.4498 202.566C40.7477 201.161 40.6036 200.41 40.8748 198.859C42.0569 197.062 42.5657 196.814 44.7398 196.814Z" fill="#101010"/>
<path d="M65.4063 185.056C66.3965 185.631 66.3965 185.631 66.9396 186.59C67.1544 188.273 67.0905 189.32 66.3965 190.872C65.4063 191.702 65.4063 191.702 63.6176 191.926C61.8288 191.702 61.8288 191.702 60.8386 191.159C59.9818 189.596 60.1089 188.333 60.2956 186.59C61.4314 184.518 63.2596 184.826 65.4063 185.056Z" fill="#040404"/>
<path d="M36.5944 309.83C38.3192 310.309 38.3192 310.309 39.3414 311.843C39.5075 313.438 39.6028 314.474 38.7664 315.869C37.3357 316.728 36.3782 316.678 34.7417 316.444C33.3152 315.43 32.7864 314.844 32.4419 313.121C32.9504 310.577 34.035 309.786 36.5944 309.83Z" fill="#0C0C0C"/>
<path d="M191.641 340.472C192.632 341.015 192.632 341.015 193.175 342.005C193.112 343.76 192.982 345.064 192.057 346.575C190.648 347.4 189.66 347.351 188.064 347.118C186.881 346.053 186.58 345.357 186.307 343.795C186.833 340.789 188.821 340.052 191.641 340.472Z" fill="#060606"/>
<path d="M40.3637 346.607C41.3858 347.438 41.3858 347.438 41.8969 348.652C41.8602 350.451 41.7061 351.365 40.4914 352.71C39.3415 353.253 39.3415 353.253 38.0319 353.189C36.6586 352.696 36.0529 352.429 35.2529 351.208C35.0537 349.614 34.9952 348.596 35.7959 347.182C37.3691 346.268 38.5898 346.385 40.3637 346.607Z" fill="#0A0A0A"/>
<path d="M191.099 310.661C192.664 310.82 192.664 310.82 193.622 311.396C194.48 312.827 194.431 313.785 194.197 315.422C193.366 316.668 193.366 316.668 192.153 317.466C190.556 317.435 190.556 317.435 189.086 316.955C188.064 315.422 188.064 315.422 188.192 313.6C188.661 311.447 188.877 310.897 191.099 310.661Z" fill="#090909"/>
<path d="M220.485 263.627C222.306 263.787 222.306 263.787 223.328 264.33C224.163 265.948 223.764 267.187 223.328 268.899C221.676 270.001 221.155 270.161 219.239 269.922C218.313 269.378 218.313 269.378 217.706 268.388C217.546 266.567 217.546 266.567 217.706 264.809C218.728 263.787 218.728 263.787 220.485 263.627Z" fill="#0A0A0A"/>
<path d="M72.0184 243.721C73.5835 243.849 73.5835 243.849 75.1168 244.871C75.4481 247.909 75.4481 247.909 74.5099 249.44C73.223 250.195 72.4976 250.234 71.0282 249.983C69.8144 249.153 69.8144 249.153 68.9839 247.938C69.0818 245.489 69.3395 243.949 72.0184 243.721Z" fill="#0A0A0A"/>
<path d="M58.6984 337.213C60.2955 337.405 60.2955 337.405 61.5412 338.235C62.3398 339.45 62.3398 339.45 62.2759 341.079C62.0545 341.791 62.0545 341.791 61.8287 342.517C60.3768 343.243 59.3475 343.189 57.7401 343.028C56.4944 342.165 56.4944 342.165 55.6958 340.983C55.804 338.71 56.3211 337.523 58.6984 337.213Z" fill="#0A0A0A"/>
<path d="M216.684 215.73C217.642 216.337 217.642 216.337 218.217 217.264C218.434 218.706 218.415 219.482 217.674 220.747C216.13 221.694 214.87 221.546 213.107 221.354C212.085 219.82 212.085 219.82 212.212 217.967C212.339 217.397 212.465 216.828 212.596 216.241C214.026 215.526 215.102 215.601 216.684 215.73Z" fill="#070707"/>
<path d="M22.4764 284.747C23.4346 285.578 23.4346 285.578 24.0096 286.792C23.9457 288.39 23.9457 288.39 23.4985 289.86C21.9653 290.882 21.9653 290.882 20.6557 290.754C19.4099 290.371 19.4099 290.371 18.3878 289.348C18.2172 287.745 18.1177 286.708 18.9947 285.322C20.2687 284.531 21.0043 284.49 22.4764 284.747Z" fill="#0E0E0E"/>
<path d="M196.497 233.496C198.285 233.623 198.285 233.623 199.307 234.646C199.499 236.148 199.499 236.148 199.307 237.713C198.445 238.704 198.445 238.704 197.263 239.247C195.541 239.124 194.918 238.946 193.686 237.713C193.558 236.18 193.558 236.18 193.686 234.646C194.708 233.623 194.708 233.623 196.497 233.496Z" fill="#0F0F0F"/>
<path d="M60.8064 229.534C62.3954 229.635 63.5166 229.815 64.8631 230.684C65.4061 231.579 65.4061 231.579 65.3103 232.889C64.895 234.135 64.895 234.135 63.8729 235.157C62.4368 235.341 61.6331 235.353 60.3912 234.582C59.5142 233.197 59.6137 232.16 59.7843 230.556C60.1216 230.219 60.4589 229.881 60.8064 229.534Z" fill="#0E0E0E"/>
<path d="M26.5649 338.427C27.2426 341.2 27.2426 341.2 26.5329 342.453C25.1231 343.272 24.0762 343.198 22.4763 343.028C21.4541 342.006 21.4541 342.006 21.2944 340.759C21.4541 339.449 21.4541 339.449 21.9972 338.491C23.5576 337.584 24.86 338.073 26.5649 338.427Z" fill="#060606"/>
<path d="M66.8758 302.001C68.4729 302.129 68.4729 302.129 69.4631 302.736C70.0061 303.663 70.0061 303.663 69.9103 304.973C69.495 306.219 69.495 306.219 68.4729 307.242C66.9396 307.369 66.9396 307.369 65.4064 307.242C65.0691 306.904 64.7318 306.567 64.3843 306.219C64.7378 302.187 64.7378 302.187 66.8758 302.001Z" fill="#0A0A0A"/>
<path d="M66.4285 263.787C67.3867 264.394 67.3867 264.394 67.9617 265.32C67.8367 267.029 67.6522 267.675 66.4285 268.899C64.9801 269.085 64.1771 269.081 62.9148 268.324C62.3399 267.365 62.3399 267.365 62.4357 265.768C62.5727 265.283 62.7098 264.798 62.8509 264.298C64.1535 263.646 64.9842 263.646 66.4285 263.787Z" fill="#0B0B0B"/>
<path d="M224.637 327.787C225.883 328.202 225.883 328.202 226.905 329.225C227.093 330.692 227.097 331.478 226.298 332.739C225.372 333.315 225.372 333.315 224.063 333.219C222.817 332.803 222.817 332.803 221.795 331.781C221.607 330.314 221.603 329.527 222.402 328.266C223.328 327.691 223.328 327.691 224.637 327.787Z" fill="#0F0F0F"/>
<path d="M80.2274 338.299C81.7606 338.427 81.7606 338.427 82.7827 339.45C82.9708 340.917 82.9744 341.703 82.1758 342.964C81.2495 343.539 81.2495 343.539 79.9399 343.444C78.6941 343.028 78.6941 343.028 77.672 342.006C77.5442 340.728 77.5442 340.728 77.672 339.45C78.6941 338.427 78.6941 338.427 80.2274 338.299Z" fill="#0D0D0D"/>
<path d="M225.372 244.871C225.692 246.309 225.692 246.309 225.883 247.938C225.377 248.697 225.377 248.697 224.861 249.472C223.328 249.664 223.328 249.664 221.795 249.472C220.773 247.938 220.773 247.938 220.9 246.341C221.09 245.613 221.09 245.613 221.284 244.871C222.746 244.139 223.805 244.564 225.372 244.871Z" fill="#0B0B0B"/>
<path d="M45.7299 222.76C47.0076 222.888 47.0076 222.888 48.0297 223.91C48.1575 225.444 48.1575 225.444 48.0297 226.977C47.0076 228 47.0076 228 45.7618 228.16C44.4522 228 44.4522 228 43.4939 227.393C42.919 226.466 42.919 226.466 43.0148 225.156C43.5689 223.493 43.9523 222.938 45.7299 222.76Z" fill="#101010"/>
<path d="M246.103 305.325C247.348 305.708 247.348 305.708 248.371 306.731C248.202 308.416 248.052 309.094 246.837 310.309C245.56 310.437 245.56 310.437 244.282 310.309C243.26 309.287 243.26 309.287 243.1 307.753C243.153 307.247 243.206 306.741 243.26 306.219C244.793 305.197 244.793 305.197 246.103 305.325Z" fill="#0C0C0C"/>
<path d="M248.371 244.359C248.587 244.563 248.804 244.767 249.027 244.976C252.055 247.712 255.204 248.948 259.103 249.983C258.934 250.489 258.766 250.995 258.592 251.517C255.336 251.856 253.463 251 250.926 248.96C249.909 247.978 249.187 247.067 248.371 245.893C248.371 245.387 248.371 244.881 248.371 244.359Z" fill="#131313"/>
<path d="M27.0758 257.141C28.7609 257.309 29.4383 257.459 30.6533 258.674C30.4848 260.36 30.3351 261.038 29.1201 262.253C27.8424 262.413 27.8424 262.413 26.5647 262.253C25.5426 260.719 25.5426 260.719 25.6703 259.409C26.0536 258.163 26.0536 258.163 27.0758 257.141Z" fill="#101010"/>
<path d="M195.251 188.251C196.241 188.635 196.241 188.635 197.263 189.657C197.095 191.343 196.945 192.021 195.73 193.236C193.402 192.952 193.402 192.952 192.664 192.213C192.536 190.712 192.536 190.712 192.664 189.146C194.197 188.124 194.197 188.124 195.251 188.251Z" fill="#101010"/>
<path d="M200.074 278.996C201.352 279.123 201.352 279.123 202.374 280.146C202.501 281.424 202.501 281.424 202.374 282.702C201.352 283.725 201.352 283.725 200.074 283.852C198.796 283.725 198.796 283.725 197.774 282.702C197.646 281.424 197.646 281.424 197.774 280.146C198.796 279.123 198.796 279.123 200.074 278.996Z" fill="#040404"/>
<path d="M199.819 205.953C201.352 206.017 201.352 206.017 201.863 206.528C201.959 207.774 201.959 207.774 201.863 209.084C201.526 209.422 201.188 209.759 200.841 210.107C198.513 209.823 198.513 209.823 197.774 209.084C197.711 207.806 197.711 207.806 197.774 206.528C198.286 206.017 198.286 206.017 199.819 205.953Z" fill="#0C0C0C"/>
<path d="M28.0979 235.668C29.4395 235.86 29.4395 235.86 30.6533 236.18C30.9727 237.394 30.9727 237.394 31.1644 238.736C30.1422 239.758 30.1422 239.758 28.8326 239.854C27.5868 239.758 27.5868 239.758 27.0758 239.247C26.9799 238.001 26.9799 238.001 27.0758 236.691C27.4131 236.354 27.7504 236.016 28.0979 235.668Z" fill="#080808"/>
<path d="M96.5817 349.674C97.6075 349.821 98.6304 349.991 99.6482 350.186C99.712 351.4 99.712 351.4 99.6482 352.742C99.3108 353.079 98.9735 353.417 98.626 353.764C97.1262 353.577 96.651 353.322 95.5596 352.23C95.8334 350.423 95.8334 350.423 96.5817 349.674Z" fill="#141414"/>
<path d="M113.958 67.4717C114.295 67.6404 114.633 67.8091 114.98 67.9829C114.623 68.3282 114.266 68.6736 113.898 69.0294C113.433 69.4854 112.968 69.9414 112.489 70.4113C112.026 70.8621 111.564 71.3128 111.087 71.7772C110.033 72.9187 109.497 73.7679 108.847 75.1402C107.506 76.0349 107.506 76.0349 106.292 76.6739C107.943 73.0299 111.131 70.2307 113.958 67.4717Z" fill="#141414"/>
<path d="M52.6296 259.186C52.9669 259.186 53.3042 259.186 53.6517 259.186C53.6517 263.572 53.6517 267.958 53.6517 272.478C53.4831 272.478 53.3144 272.478 53.1406 272.478C53.1278 272.194 53.115 271.911 53.1018 271.618C53.0424 270.328 52.9797 269.039 52.9171 267.749C52.897 267.303 52.8769 266.856 52.8562 266.397C52.8347 265.965 52.8133 265.533 52.7913 265.089C52.7725 264.692 52.7538 264.296 52.7345 263.888C52.6627 262.761 52.6627 262.761 52.332 261.692C52.1185 260.719 52.1185 260.719 52.6296 259.186Z" fill="#3A3A3A"/>
<path d="M52.6292 259.186C52.9665 259.186 53.3039 259.186 53.6514 259.186C53.6514 260.367 53.6514 261.547 53.6514 262.764C53.1454 262.764 52.6395 262.764 52.1182 262.764C52.2868 261.583 52.4555 260.402 52.6292 259.186Z" fill="#282828"/>
</g>
<defs>
<filter id="filter0_d_668_628" x="-3.2749" y="0.523438" width="307.675" height="371.867" filterUnits="userSpaceOnUse" color-interpolation-filters="sRGB">
<feFlood flood-opacity="0" result="BackgroundImageFix"/>
<feColorMatrix in="SourceAlpha" type="matrix" values="0 0 0 0 0 0 0 0 0 0 0 0 0 0 0 0 0 0 127 0" result="hardAlpha"/>
<feOffset dy="4"/>
<feGaussianBlur stdDeviation="2"/>
<feComposite in2="hardAlpha" operator="out"/>
<feColorMatrix type="matrix" values="0 0 0 0 0 0 0 0 0 0 0 0 0 0 0 0 0 0 0.25 0"/>
<feBlend mode="normal" in2="BackgroundImageFix" result="effect1_dropShadow_668_628"/>
<feBlend mode="normal" in="SourceGraphic" in2="effect1_dropShadow_668_628" result="shape"/>
</filter>
<clipPath id="clip0_668_628">
<rect width="300" height="364" fill="white" transform="translate(0.5 0.5)"/>
</clipPath>
</defs>
</svg>
