<?xml version="1.0" encoding="UTF-8"?>
<svg version="1.1" xmlns="http://www.w3.org/2000/svg" width="720" height="972">
<path d="M0 0 C34.04489969 29.23350693 48.56520421 72.28836271 51.90625 116.12060547 C54.84189754 166.08777297 45.3399709 217.83616456 15.46875 259.1015625 C13.82774362 261.54920446 13.82774362 261.54920446 14.66796875 263.73828125 C15.14621094 264.38925781 15.62445313 265.04023438 16.1171875 265.7109375 C16.65472656 266.53207031 17.19226563 267.35320312 17.74609375 268.19921875 C18.38417969 269.13121094 19.02226562 270.06320312 19.6796875 271.0234375 C21.16506785 273.24880734 22.64600709 275.47623308 24.1171875 277.7109375 C24.50422852 278.29875 24.89126953 278.8865625 25.29003906 279.4921875 C26.48146451 281.32423857 27.64963719 283.16824678 28.8046875 285.0234375 C29.38959961 285.96110962 29.38959961 285.96110962 29.98632812 286.91772461 C32.27750039 290.76958605 33.6621836 294.30064759 34.70605469 298.64794922 C35.92709961 303.64416291 37.08892101 307.37659854 41.484375 310.23046875 C44.21070048 311.76217654 47.01537092 313.11201911 49.828125 314.4765625 C66.78799024 322.83802828 76.86452388 338.93399301 83.02011108 356.25106812 C85.34184546 363.24991147 87.41212825 370.32488644 89.4921875 377.3984375 C90.17606349 379.69368058 90.8604832 381.98876172 91.54541016 384.28369141 C99.14939776 409.86390803 106.38084828 435.55395527 113.58349609 461.24951172 C114.74918344 465.40689714 115.92567521 469.56088327 117.1171875 473.7109375 C117.76986828 470.25386112 118.41303715 466.79507673 119.0546875 463.3359375 C119.23708984 462.37042969 119.41949219 461.40492188 119.60742188 460.41015625 C121.24326232 451.54687528 122.26062457 442.85166359 122.2421875 433.8359375 C122.24605469 431.95261719 122.24605469 431.95261719 122.25 430.03125 C122.19278283 426.71738929 121.9322545 423.44849042 121.62890625 420.1484375 C121.00048254 412.96112393 120.85893997 405.79789943 120.8046875 398.5859375 C120.76118164 396.64654297 120.76118164 396.64654297 120.71679688 394.66796875 C120.66193205 386.37071904 121.09439991 378.46899178 126.6706543 371.87353516 C133.20189368 365.48917205 144.46585225 360.69799057 153.52734375 360.71875 C154.73261719 360.75742187 155.93789063 360.79609375 157.1796875 360.8359375 C168.87770639 360.58900258 178.42199301 353.61173563 188.1171875 347.7109375 C191.07194532 345.9340858 194.03088971 344.16436488 196.9921875 342.3984375 C197.66644775 341.99318848 198.34070801 341.58793945 199.03540039 341.17041016 C208.47177716 335.59141337 219.40583981 329.63944506 230.4921875 329.3984375 C231.61367188 329.36105469 232.73515625 329.32367188 233.890625 329.28515625 C237.83614085 329.80581149 239.41096514 330.82266018 242.1171875 333.7109375 C243.847513 338.43547843 242.53084344 341.65905919 240.58984375 346.09375 C235.93147586 354.37254704 228.30006751 359.15254194 220.29296875 363.84765625 C216.11595707 366.29837528 212.11631397 368.98285122 208.1171875 371.7109375 C208.64828125 372.05125 209.179375 372.3915625 209.7265625 372.7421875 C214.80877405 376.22925236 218.55642581 379.57117643 220.1171875 385.7109375 C220.0234375 387.89453125 220.0234375 387.89453125 219.6796875 390.0234375 C219.4940625 391.2403125 219.3084375 392.4571875 219.1171875 393.7109375 C220.49204282 395.25260392 220.49204282 395.25260392 222.1171875 396.7109375 C222.5520317 399.40697151 222.8758118 402.00216577 223.1171875 404.7109375 C223.54421112 407.09006912 224.01781453 409.38876655 224.73046875 411.69921875 C226.42086457 417.70375359 226.03984232 422.13437773 223.1171875 427.7109375 C221.69140625 429.46875 221.69140625 429.46875 220.1171875 430.7109375 C219.1271875 430.7109375 218.1371875 430.7109375 217.1171875 430.7109375 C217.0553125 432.4125 217.0553125 432.4125 216.9921875 434.1484375 C216.19979872 440.27045492 213.01503417 445.17532167 208.3984375 449.21484375 C203.42625947 452.57527763 197.82588179 454.40742325 192.16796875 456.3046875 C186.04141989 459.1287049 183.2119533 463.67134678 180.6796875 469.7109375 C180.38674805 470.39953857 180.09380859 471.08813965 179.79199219 471.79760742 C173.92587631 486.09428736 170.24696978 501.13050373 168.39746094 516.453125 C168.20932506 517.96870042 168.00134014 519.48193304 167.77441406 520.9921875 C167.08175658 525.61793489 166.54176622 530.03494129 167.1171875 534.7109375 C168.91347451 537.05260322 170.52742849 538.14850477 173.09765625 539.56640625 C176.20938561 541.32992018 177.09177486 543.36125621 178.1171875 546.7109375 C178.04124799 550.88761067 177.40538451 553.24261736 175.2109375 556.80859375 C172.63218302 561.21297401 171.70147032 565.75058991 170.6796875 570.7109375 C170.36837891 572.14095093 170.36837891 572.14095093 170.05078125 573.59985352 C169.17432048 577.64127484 168.32967617 581.68904666 167.48779297 585.73779297 C162.30712347 610.62849983 153.36706587 647.40305157 130.37109375 662.515625 C116.79525247 669.89495095 101.96012306 670.18568913 87.2421875 665.9609375 C81.78074317 664.12022849 75.2902169 661.8839669 71.1171875 657.7109375 C70.99601562 658.77054688 70.87484375 659.83015625 70.75 660.921875 C70.58117998 662.30995074 70.41188442 663.69796869 70.2421875 665.0859375 C70.16355469 665.78460937 70.08492187 666.48328125 70.00390625 667.203125 C69.34375 672.484375 69.34375 672.484375 67.1171875 674.7109375 C63.93514936 675.31870679 60.83064319 675.77376269 57.6171875 676.1484375 C56.55983398 676.27331543 55.50248047 676.39819336 54.41308594 676.52685547 C26.83530908 679.52900269 -1.14109692 680.81282801 -28.86743164 681.50683594 C-32.93924118 681.60910756 -37.01082497 681.71328424 -41.08216858 681.8326416 C-85.00174258 683.1047342 -128.94292898 682.86373983 -172.87608749 682.83950627 C-180.50601919 682.83573798 -188.13593791 682.83709209 -195.76586914 682.84130859 C-289.39697066 682.89187445 -289.39697066 682.89187445 -331.8828125 681.7109375 C-332.1509375 682.5153125 -332.4190625 683.3196875 -332.6953125 684.1484375 C-333.0871875 684.9940625 -333.4790625 685.8396875 -333.8828125 686.7109375 C-336.8828125 687.7109375 -336.8828125 687.7109375 -339.0078125 686.9609375 C-340.8828125 685.7109375 -340.8828125 685.7109375 -341.8828125 682.7109375 C-342.03633567 680.2088724 -342.13776952 677.72960358 -342.19580078 675.22509766 C-342.21702342 674.46019862 -342.23824606 673.69529959 -342.26011181 672.90722179 C-342.32935407 670.35491765 -342.39151862 667.80249915 -342.453125 665.25 C-342.49937873 663.44739914 -342.54578365 661.64480216 -342.59233093 659.84220886 C-342.74016649 654.0069935 -342.87506395 648.17151296 -343.0078125 642.3359375 C-343.03059139 641.34803097 -343.05337029 640.36012444 -343.07683945 639.34228134 C-345.00175533 555.49743081 -340.25671965 478.4310135 -305.8828125 400.7109375 C-304.95365201 398.58236942 -304.02529074 396.45345231 -303.09765625 394.32421875 C-301.23758171 390.06485274 -299.36179772 385.81295511 -297.47265625 381.56640625 C-295.86833663 377.95741981 -294.29339305 374.3396031 -292.76171875 370.69921875 C-286.11640007 355.0158046 -277.93943565 341.801959 -265.8828125 329.7109375 C-265.36525391 329.16276367 -264.84769531 328.61458984 -264.31445312 328.04980469 C-259.86594387 323.41401678 -255.06454751 319.69378661 -249.7578125 316.0859375 C-248.93047607 315.51979736 -248.10313965 314.95365723 -247.25073242 314.37036133 C-240.75058069 310.04007523 -234.41164166 306.91416758 -226.8828125 304.7109375 C-227.20894531 304.12570312 -227.53507812 303.54046875 -227.87109375 302.9375 C-229.51971588 299.30925824 -229.21533861 296.34395679 -227.8828125 292.7109375 C-222.18671065 283.99061662 -213.15770152 278.04245243 -204.80761719 272.08740234 C-203.4981352 271.15096659 -202.19693068 270.20287063 -200.90332031 269.24462891 C-196.10147463 265.7109375 -196.10147463 265.7109375 -193.8828125 265.7109375 C-193.5115625 264.56625 -193.5115625 264.56625 -193.1328125 263.3984375 C-192.41717709 261.28731303 -191.67542196 259.18375393 -190.859375 257.109375 C-190.49585938 256.17351562 -190.13234375 255.23765625 -189.7578125 254.2734375 C-189.40460938 253.38785156 -189.05140625 252.50226563 -188.6875 251.58984375 C-187.30963268 246.66028932 -187.09485447 243.16464711 -189.5703125 238.59765625 C-190.3334375 237.54191406 -191.0965625 236.48617188 -191.8828125 235.3984375 C-204.76715943 216.61206366 -211.20571544 193.96197106 -214.8828125 171.7109375 C-215.06070313 170.66268799 -215.06070313 170.66268799 -215.2421875 169.59326172 C-222.80342023 123.24695575 -210.67487763 76.21876991 -183.5 38.359375 C-172.08133565 22.92736305 -158.01119612 9.13841431 -141.8828125 -1.2890625 C-141.23022461 -1.71622559 -140.57763672 -2.14338867 -139.90527344 -2.58349609 C-97.20496854 -30.1569253 -40.66664175 -33.62769451 0 0 Z " fill="#010101" transform="translate(465.8828125,161.2890625)"/>
<path d="M0 0 C3.29414609 1.67322958 6.5812219 3.355478 9.85229492 5.07348633 C11.00922852 5.65163086 12.16616211 6.22977539 13.3581543 6.82543945 C14.45579102 7.39584961 15.55342773 7.96625977 16.68432617 8.55395508 C17.68826416 9.0723999 18.69220215 9.59084473 19.7265625 10.125 C22.03979492 11.88598633 22.03979492 11.88598633 22.94433594 14.34082031 C23.04099355 16.91794464 22.79590578 18.53195712 21.92260742 20.94067383 C21.64964844 21.70887451 21.37668945 22.4770752 21.09545898 23.26855469 C20.78833984 24.09105713 20.4812207 24.91355957 20.16479492 25.76098633 C19.85251953 26.62796143 19.54024414 27.49493652 19.21850586 28.38818359 C16.35728836 36.2467426 13.22544495 43.99780605 10.11230469 51.7590332 C7.63435062 58.04520575 5.75001254 64.08578861 4.57495117 70.75317383 C4.39834961 71.45700195 4.22174805 72.16083008 4.03979492 72.88598633 C1.10033508 74.35571625 -1.70975943 73.88598633 -4.96020508 73.88598633 C-5.95020508 74.38098633 -5.95020508 74.38098633 -6.96020508 74.88598633 C-6.98083008 76.18536133 -7.00145508 77.48473633 -7.02270508 78.82348633 C-7.03430664 79.55438477 -7.0459082 80.2852832 -7.05786133 81.03833008 C-7.16581692 82.90330774 -7.16581692 82.90330774 -5.96020508 83.88598633 C-4.61273424 84.11673715 -3.25642943 84.29751696 -1.89770508 84.44848633 C-0.59833008 84.59286133 0.70104492 84.73723633 2.03979492 84.88598633 C2.12616211 85.89016602 2.2125293 86.8943457 2.30151367 87.92895508 C3.63074639 101.53433831 8.39223511 112.60058059 14.2199707 124.85473633 C18.42967446 133.74796331 22.27842824 142.27210351 19.34838867 152.23754883 C17.69536301 156.26290838 15.61824924 159.54929009 12.91479492 162.94848633 C8.00223875 169.22564144 7.40778103 176.04666298 8.03979492 183.88598633 C8.92739964 188.78750442 10.09868441 193.61365405 11.28979492 198.44848633 C11.61525295 199.80139509 11.93987375 201.15450551 12.26367188 202.5078125 C13.17527854 206.30395215 14.10492933 210.0955023 15.03979492 213.88598633 C15.25748535 214.76963867 15.47517578 215.65329102 15.69946289 216.5637207 C16.50539661 219.82147917 17.32348888 223.07555041 18.15307617 226.32739258 C18.78241393 228.85306085 19.3854403 231.37496434 19.95776367 233.91333008 C22.29923711 244.27564682 25.20991978 254.39259909 28.32592773 264.54711914 C29.38192977 268.00693428 30.40494232 271.47487986 31.41479492 274.94848633 C31.7319043 276.03258789 32.04901367 277.11668945 32.37573242 278.23364258 C33.03979492 280.88598633 33.03979492 280.88598633 33.03979492 283.88598633 C31.38979492 284.54598633 29.73979492 285.20598633 28.03979492 285.88598633 C26.97769449 290.63000908 26.97769449 290.63000908 27.97729492 295.26098633 C30.28777547 297.08136494 31.30930692 297.19324185 34.16870117 297.48754883 C36.08489258 297.68477539 36.08489258 297.68477539 38.03979492 297.88598633 C38.65854492 299.65304932 38.65854492 299.65304932 39.28979492 301.45581055 C40.85535906 305.92039096 42.43085457 310.3814175 44.0090332 314.84155273 C44.68450372 316.75469258 45.35744896 318.66872632 46.02758789 320.58374023 C49.49299168 330.48118285 53.05609005 340.29506679 57.28979492 349.89379883 C57.60682373 350.61663055 57.92385254 351.33946228 58.25048828 352.084198 C60.16431626 356.3158857 62.23323477 360.17410757 65.03979492 363.88598633 C65.69979492 363.88598633 66.35979492 363.88598633 67.03979492 363.88598633 C66.52471471 356.44990802 64.66904066 350.07132421 62.20776367 343.05786133 C61.81972061 341.92728806 61.43167755 340.79671478 61.03187561 339.63188171 C60.2015167 337.21521017 59.3670862 334.79993439 58.52893066 332.38595581 C56.55479477 326.69853565 54.6060421 321.00246691 52.65592575 315.30677605 C52.0051531 313.40701931 51.35331938 311.50762918 50.70132446 309.60829163 C45.68808276 294.98538692 40.88591935 280.29695748 36.20776367 265.5637207 C35.47425353 263.2540224 34.73772727 260.94527752 33.99682617 258.63793945 C27.14240516 237.24934819 21.75587319 215.40198659 17.03979492 193.44848633 C16.83209473 192.50303955 16.62439453 191.55759277 16.41040039 190.58349609 C14.48225767 181.27763492 13.86567859 174.12040318 19.03979492 165.88598633 C20.07430088 164.33950549 21.11617603 162.79793264 22.16479492 161.26098633 C26.47510416 154.88259942 27.72924013 149.49219338 27.03979492 141.88598633 C25.11881541 132.11057597 20.77161912 123.52761039 16.42260742 114.64575195 C5.72838614 92.25971413 9.03472501 73.93323882 17.01123047 51.36401367 C18.64202457 46.78336593 20.30783383 42.21555826 21.97413635 37.6477356 C24.46804029 30.77348831 26.76262348 23.83448501 29.03979492 16.88598633 C33.90851547 17.48157738 37.63308333 19.61076048 41.85229492 21.94848633 C42.54516602 22.32553711 43.23803711 22.70258789 43.9519043 23.09106445 C45.65108477 24.01682485 47.34588918 24.95060944 49.03979492 25.88598633 C49.04788177 26.50602539 49.05596863 27.12606445 49.06430054 27.76489258 C49.43014837 55.37965196 49.85312566 82.97997154 51.03979492 110.57348633 C51.08158875 111.55470459 51.12338257 112.53592285 51.16644287 113.546875 C51.96506507 134.20217793 51.96506507 134.20217793 53.97729492 154.76098633 C54.69232712 160.4353665 55.22903629 166.0995462 55.63891602 171.80395508 C57.63338654 199.44357402 61.19494364 226.98404666 65.2277832 254.39331055 C66.85715957 265.47233122 68.3224683 276.5663582 69.69628906 287.67993164 C70.58915413 294.80148948 71.6867464 301.8380695 73.03979492 308.88598633 C73.52647991 311.5513542 74.00137052 314.2186586 74.47729492 316.88598633 C74.60507324 317.59456787 74.73285156 318.30314941 74.86450195 319.03320312 C75.5589228 322.94113099 76.18690652 326.84761287 76.72338867 330.78051758 C78.23319479 345.79517456 78.23319479 345.79517456 85.55615234 358.29956055 C93.36765703 363.7793161 103.01909354 362.46284423 112.10229492 362.26098633 C113.98003891 362.23471526 115.85780779 362.2101729 117.7355957 362.18725586 C121.72846332 362.13437103 125.72067543 362.06510498 129.71313477 361.98754883 C135.14968092 361.88917858 140.58417796 361.86415973 146.02153015 361.85995483 C150.41777939 361.85310712 154.8136071 361.82027079 159.20968628 361.7822876 C161.33995498 361.76812975 163.47030518 361.76315007 165.60061646 361.76751709 C168.589173 361.77015532 171.57505315 361.73499022 174.56323242 361.69067383 C175.45093826 361.69973755 176.3386441 361.70880127 177.25325012 361.71813965 C181.77204117 361.64730973 181.77204117 361.64730973 185.6900177 359.64135742 C192.02304238 352.44082718 191.37365144 342.69249885 191.60229492 333.63598633 C191.66245612 331.52650435 191.72613073 329.41711898 191.79370117 327.30786133 C191.82959351 325.9248584 191.82959351 325.9248584 191.86621094 324.51391602 C192.03979492 321.88598633 192.03979492 321.88598633 192.52186584 319.58180237 C193.0666182 316.7463714 193.31237423 314.00585141 193.50024414 311.125 C193.61434128 309.40462273 193.61434128 309.40462273 193.73074341 307.64949036 C193.80952728 306.40108871 193.88831116 305.15268707 193.96948242 303.86645508 C194.05556997 302.52751637 194.14174361 301.1885832 194.22799683 299.84965515 C194.45770393 296.25943625 194.68152654 292.66887233 194.90367126 289.07817841 C195.03708899 286.92956384 195.17252978 284.78108559 195.30847168 282.63262939 C198.05610673 239.01877251 199.44859755 195.46473101 199.47414398 151.76211166 C199.47723186 148.39230049 199.48565065 145.02253892 199.49517822 141.65274048 C199.55772423 114.41591098 198.74740143 87.36105868 196.87830162 60.18592834 C195.1259166 34.46143917 195.1259166 34.46143917 198.62963867 29.62426758 C199.71351312 28.45191358 200.83023274 27.3090925 201.97729492 26.19848633 C203.09123032 25.02853589 204.20454246 23.85799162 205.31713867 22.68676758 C206.21561523 21.76250977 207.1140918 20.83825195 208.03979492 19.88598633 C208.36979492 19.22598633 208.69979492 18.56598633 209.03979492 17.88598633 C209.69979492 17.88598633 210.35979492 17.88598633 211.03979492 17.88598633 C211.71461914 19.67262695 211.71461914 19.67262695 212.40307617 21.49536133 C213.05244765 23.20904253 213.70222386 24.92257039 214.35229492 26.63598633 C214.70187256 27.55814941 215.0514502 28.4803125 215.41162109 29.43041992 C217.53717661 35.01362548 219.70367474 40.57826217 221.91479492 46.12817383 C222.64508911 47.96557129 222.64508911 47.96557129 223.39013672 49.84008789 C224.34495583 52.23725939 225.3045459 54.6325376 226.26953125 57.02563477 C234.11920943 76.75824334 238.61730826 99.61466883 230.03979492 119.88598633 C229.74331055 120.59883789 229.44682617 121.31168945 229.14135742 122.04614258 C228.44811481 123.66256471 227.74475832 125.27464141 227.03979492 126.88598633 C226.27023356 129.23132583 226.27023356 129.23132583 226.03979492 131.88598633 C225.90831055 132.87791992 225.90831055 132.87791992 225.77416992 133.88989258 C224.93360261 145.48590074 231.913155 156.91606774 236.84057617 167.08129883 C252.00058153 202.53694653 224.97199669 269.3736963 216.80541992 305.91333008 C215.09314923 313.57548647 213.48731618 321.25644451 211.91479492 328.94848633 C211.41282637 331.39783543 210.91023715 333.84705742 210.40698242 336.29614258 C210.05724365 337.99903442 210.05724365 337.99903442 209.70043945 339.73632812 C209.12746954 342.46799291 208.52305237 345.18905877 207.89916992 347.90942383 C207.18446328 351.0844695 206.68928145 354.20039576 206.41479492 357.44848633 C206.3400293 358.29540039 206.26526367 359.14231445 206.18823242 360.01489258 C206.13924805 360.63235352 206.09026367 361.24981445 206.03979492 361.88598633 C207.68979492 361.55598633 209.33979492 361.22598633 211.03979492 360.88598633 C211.26530029 359.86335693 211.26530029 359.86335693 211.49536133 358.82006836 C214.30810049 346.07876388 217.14822338 333.34534145 220.10229492 320.63598633 C222.64703153 309.67646619 225.07988059 298.69555618 227.4375 287.69433594 C227.85462012 285.74940983 228.27387183 283.80494011 228.69482422 281.86083984 C230.82724551 271.98240003 232.86606617 262.08540086 234.89160156 252.18457031 C235.47139457 249.35230928 236.05340139 246.52050905 236.63549805 243.6887207 C238.56543618 234.27653259 240.45469436 224.85762375 242.26245117 215.42114258 C242.42724472 214.56491806 242.59203827 213.70869354 242.76182556 212.82652283 C246.94062532 190.82487717 246.47036419 171.51351515 235.97729492 151.55004883 C235.65116211 150.92259766 235.3250293 150.29514648 234.98901367 149.64868164 C234.14415378 148.0797803 233.2218368 146.55315277 232.28979492 145.03442383 C229.10611553 137.01553135 231.32605214 129.72650452 234.47729492 122.07348633 C244.40604959 97.08448201 237.21823488 71.68885844 227.03979492 47.88598633 C224.55100245 42.2011306 222.04365519 36.52460779 219.45751953 30.88330078 C218.99869385 29.86969482 218.53986816 28.85608887 218.06713867 27.81176758 C217.65197998 26.9085376 217.23682129 26.00530762 216.80908203 25.07470703 C216.55521729 24.3524292 216.30135254 23.63015137 216.03979492 22.88598633 C216.36979492 22.22598633 216.69979492 21.56598633 217.03979492 20.88598633 C217.69979492 21.54598633 218.35979492 22.20598633 219.03979492 22.88598633 C222.60572111 22.721816 222.60572111 22.721816 226.03979492 21.88598633 C227.3941916 19.17719297 227.10480943 16.87665365 227.03979492 13.88598633 C224.72979492 12.89598633 222.41979492 11.90598633 220.03979492 10.88598633 C220.03979492 10.55598633 220.03979492 10.22598633 220.03979492 9.88598633 C225.43929591 9.56201627 228.28013966 10.5061587 233.03979492 12.88598633 C236.66622158 13.38668954 236.66622158 13.38668954 240.03979492 12.88598633 C241.05920682 11.90578258 242.06225848 10.90795624 243.03979492 9.88598633 C254.00536996 11.00145 263.22974694 21.03639831 270.03979492 28.88598633 C278.25220026 39.85652025 282.5311638 51.77175853 286.03979492 64.88598633 C286.63982007 66.99133773 287.24407475 69.09548777 287.85229492 71.19848633 C289.11269312 75.59761934 290.35047389 80.00189579 291.56713867 84.41333008 C294.60418522 95.39700726 297.75882498 106.32304402 301.16479492 117.19848633 C304.32044712 127.29732471 307.04578856 137.43304807 309.51049805 147.71948242 C310.30119501 150.95594223 311.16935223 154.17018416 312.03979492 157.38598633 C313.67131346 163.45737498 315.24760281 169.54127795 316.78979492 175.63598633 C317.12430664 176.94212891 317.12430664 176.94212891 317.46557617 178.2746582 C317.67053711 179.08999023 317.87549805 179.90532227 318.08666992 180.74536133 C318.36269043 181.8354248 318.36269043 181.8354248 318.64428711 182.94750977 C319.03979492 184.88598633 319.03979492 184.88598633 319.03979492 187.88598633 C318.33081055 188.39774414 317.62182617 188.90950195 316.89135742 189.43676758 C312.76846744 192.97793473 310.84050852 197.26575485 308.41479492 202.07348633 C307.89699463 203.08290283 307.37919434 204.09231934 306.84570312 205.13232422 C301.55336001 215.59236174 296.85594807 226.30058547 292.2487793 237.07592773 C291.14105638 239.65062295 290.01179107 242.21390578 288.86791992 244.77270508 C288.38222534 245.86240601 288.38222534 245.86240601 287.88671875 246.97412109 C287.05201906 248.84362431 286.2158986 250.71249301 285.37963867 252.58129883 C282.99692748 258.45818999 281.78376462 263.46851656 281.91479492 269.82348633 C281.9328418 270.96688477 281.95088867 272.1102832 281.96948242 273.28833008 C281.99268555 274.14555664 282.01588867 275.0027832 282.03979492 275.88598633 C283.35979492 275.88598633 284.67979492 275.88598633 286.03979492 275.88598633 C286.19834961 275.33813477 286.3569043 274.7902832 286.52026367 274.22583008 C290.41148456 261.00427845 294.96644094 248.28653988 300.37277222 235.6204834 C306.38405485 221.52392543 312.04386962 207.37895813 317.03979492 192.88598633 C319.01169907 195.84384255 319.78629448 198.07267563 320.78979492 201.44848633 C326.23436467 218.02151731 338.63315533 231.12833923 353.99267578 239.13745117 C360.19608902 242.25746436 366.3468389 244.97371318 373.03979492 246.88598633 C372.61501487 250.17803173 371.64640351 252.7901633 370.20385742 255.73754883 C367.50575999 261.72062824 366.14975462 267.95253022 364.66479492 274.32348633 C360.52122236 291.37566788 355.87832481 306.67653642 347.03979492 321.88598633 C346.3959082 320.9037207 346.3959082 320.9037207 345.73901367 319.90161133 C345.17827148 319.23645508 344.6175293 318.57129883 344.03979492 317.88598633 C340.91392617 317.55200845 340.91392617 317.55200845 338.03979492 317.88598633 C337.36020889 320.28318065 337.36020889 320.28318065 337.03979492 322.88598633 C339.39932586 325.24551727 340.8187511 325.37740046 344.03979492 325.88598633 C341.49858045 334.01787264 334.99649972 341.15440402 328.03979492 345.88598633 C322.83536271 348.20334446 317.88608469 348.23449379 312.28979492 348.19848633 C311.39744141 348.19357178 310.50508789 348.18865723 309.58569336 348.18359375 C298.36024378 347.98350575 289.29475515 345.03723007 281.03979492 337.19848633 C279.03979492 334.88598633 279.03979492 334.88598633 279.03979492 332.88598633 C278.04979492 332.55598633 277.05979492 332.22598633 276.03979492 331.88598633 C274.73559654 326.04732996 274.67560654 320.24957649 274.48339844 314.28759766 C274.4412172 313.00970525 274.39903597 311.73181284 274.35557652 310.41519642 C273.88556508 295.23174979 273.91058177 280.04725192 273.93840098 264.85812736 C273.94478936 260.75965287 273.94525023 256.66117706 273.94642639 252.56269836 C273.94949522 244.85360103 273.9576465 237.14451843 273.96777588 229.43542749 C273.97907791 220.63685914 273.98448242 211.83828996 273.98947132 203.03971612 C273.99983458 184.98846461 274.01734472 166.93722667 274.03979492 148.88598633 C273.48606967 152.96526766 272.93505923 157.04490632 272.38638592 161.1248703 C272.20000777 162.50805416 272.01293304 163.89114436 271.82510281 165.27413177 C270.28363686 176.62933573 269.06571904 187.9491988 268.35229492 199.38598633 C268.26315323 200.73808197 268.26315323 200.73808197 268.17221069 202.11749268 C266.18154233 232.97664057 266.27383647 263.97361735 266.03979492 294.88598633 C263.39979492 295.21598633 260.75979492 295.54598633 258.03979492 295.88598633 C257.98579756 297.34391517 257.94700316 298.80241345 257.91479492 300.26098633 C257.8915918 301.0730957 257.86838867 301.88520508 257.84448242 302.72192383 C257.82609442 305.09940876 257.82609442 305.09940876 260.03979492 306.88598633 C262.34979492 307.21598633 264.65979492 307.54598633 267.03979492 307.88598633 C267.36979492 321.08598633 267.69979492 334.28598633 268.03979492 347.88598633 C266.05979492 348.54598633 264.07979492 349.20598633 262.03979492 349.88598633 C261.83008933 354.02692331 261.83008933 354.02692331 263.03979492 357.88598633 C263.98854492 357.82411133 264.93729492 357.76223633 265.91479492 357.69848633 C266.94604492 357.76036133 267.97729492 357.82223633 269.03979492 357.88598633 C269.69979492 358.87598633 270.35979492 359.86598633 271.03979492 360.88598633 C273.6235967 361.1362961 273.6235967 361.1362961 276.03979492 360.88598633 C275.16479492 365.76098633 275.16479492 365.76098633 274.03979492 366.88598633 C242.64516602 372.23112315 209.83996586 372.88627146 178.05541992 373.68188477 C173.98319383 373.78416766 169.91119283 373.88835235 165.83943176 374.00769043 C121.93899619 375.27888487 78.0170705 375.03879004 34.10306174 375.0145551 C26.47942924 375.01078791 18.85580975 375.01213998 11.23217773 375.01635742 C-82.28082563 375.06691136 -82.28082563 375.06691136 -125.96020508 373.88598633 C-126.67101807 363.93470515 -127.10296096 354.05541994 -127.05786133 344.07348633 C-127.05644638 342.85314697 -127.05503143 341.63280762 -127.05357361 340.37548828 C-127.04805556 336.54562743 -127.03551958 332.71582897 -127.02270508 328.88598633 C-127.01767945 326.26098718 -127.01311843 323.63598711 -127.0090332 321.01098633 C-126.9981132 314.63596568 -126.98145956 308.26098046 -126.96020508 301.88598633 C-124.98020508 301.55598633 -123.00020508 301.22598633 -120.96020508 300.88598633 C-120.96020508 298.90598633 -120.96020508 296.92598633 -120.96020508 294.88598633 C-122.94020508 294.55598633 -124.92020508 294.22598633 -126.96020508 293.88598633 C-127.01183121 286.35020958 -127.04631673 278.81447999 -127.07006836 271.27856445 C-127.07999248 268.72646379 -127.09353609 266.17437408 -127.11108398 263.62231445 C-127.24333276 243.86279196 -126.18439867 224.51092955 -123.96020508 204.88598633 C-122.84645508 204.76223633 -121.73270508 204.63848633 -120.58520508 204.51098633 C-116.92916831 204.23940502 -116.92916831 204.23940502 -114.96020508 201.88598633 C-114.62687174 198.88598633 -114.62687174 198.88598633 -114.96020508 195.88598633 C-117.09875357 193.74743783 -118.09295821 193.4594357 -120.96020508 192.88598633 C-121.41191187 186.06128589 -119.76208558 179.90855492 -118.08520508 173.32348633 C-117.77276855 172.09404297 -117.46033203 170.86459961 -117.13842773 169.59790039 C-110.51649628 144.22186223 -101.10438636 120.01851008 -90.96020508 95.88598633 C-90.30020508 95.88598633 -89.64020508 95.88598633 -88.96020508 95.88598633 C-88.96020508 96.54598633 -88.96020508 97.20598633 -88.96020508 97.88598633 C-85.99020508 97.88598633 -83.02020508 97.88598633 -79.96020508 97.88598633 C-79.79339399 94.96946459 -79.79339399 94.96946459 -79.96020508 91.88598633 C-82.31973602 89.52645539 -83.73916125 89.3945722 -86.96020508 88.88598633 C-86.38210154 84.5179124 -85.29751942 80.91129233 -83.51879883 76.88598633 C-82.77303589 75.19421265 -82.77303589 75.19421265 -82.01220703 73.46826172 C-81.21302856 71.6950354 -81.21302856 71.6950354 -80.39770508 69.88598633 C-80.1259848 69.28027802 -79.85426453 68.6745697 -79.5743103 68.05050659 C-64.89995567 35.40508262 -46.48272692 15.13661621 -13.96020508 0.88598633 C-13.09524414 0.48250977 -12.2302832 0.0790332 -11.33911133 -0.33666992 C-7.27109541 -1.66595591 -4.00270471 -1.50633745 0 0 Z " fill="#FDFDFD" transform="translate(258.960205078125,469.114013671875)"/>
<path d="M0 0 C3.50720031 1.43476377 6.32475046 3.32475046 9 6 C10.36799796 6.32291797 11.74493176 6.60834275 13.125 6.875 C21.21172594 8.68064854 21.21172594 8.68064854 25 11 C26.01627669 13.85525357 26.57238869 16.06479152 27 19 C29.00205249 28.68612061 32.36615673 37.36376125 40 44 C48.88984599 49.5978249 57.8910188 51.50796571 68.22265625 49.31640625 C80.31662201 45.90746386 89.89089296 39.72682734 96.3515625 28.69140625 C99.52596794 21.73740296 99.78230322 14.5540781 100 7 C103.62091549 6.16897022 106.97470552 5.86486959 110.6875 5.875 C112.11642578 5.87113281 112.11642578 5.87113281 113.57421875 5.8671875 C116 6 116 6 118 7 C118.78074352 9.60738875 119.45332372 12.16501525 120.0625 14.8125 C120.23587891 15.53759766 120.40925781 16.26269531 120.58789062 17.00976562 C121.06437064 19.00513977 121.53250063 21.00250268 122 23 C122.33117878 24.33387012 122.66392559 25.66735493 123 27 C122.2575 26.67 121.515 26.34 120.75 26 C117.86116688 24.77217129 117.86116688 24.77217129 114 25 C115.55696407 28.82163907 118.03408684 31.18618495 121 34 C122 35 122 35 122.3125 38.8125 C122.25831199 41.8307722 122.08640108 42.86175828 120.4375 45.5 C116.90858537 47.67163977 115.10472814 47.67290625 111 47 C108.60084893 45.53911041 106.40834443 43.96404313 104.2109375 42.21484375 C102.01000262 40.72830108 102.01000262 40.72830108 99.2265625 41.31640625 C98.49179687 41.54199219 97.75703125 41.76757812 97 42 C97 43.65 97 45.3 97 47 C98.41328129 47.81837442 99.83078346 48.62946219 101.25 49.4375 C102.43335938 50.11619141 102.43335938 50.11619141 103.640625 50.80859375 C108.54656076 53.28592886 113.57898888 53.66821491 119 53 C123.94921579 50.61704425 126.092241 48.12082679 128 43 C128.7136724 39.26228166 128.7136724 39.26228166 129 36 C129.88751953 36.61488281 129.88751953 36.61488281 130.79296875 37.2421875 C131.97826172 38.05042969 131.97826172 38.05042969 133.1875 38.875 C133.96480469 39.40867187 134.74210938 39.94234375 135.54296875 40.4921875 C140.12170082 43.30202944 143.96070088 44.27213412 149.3125 44.625 C150.38113281 44.69976562 151.44976562 44.77453125 152.55078125 44.8515625 C153.35902344 44.90054688 154.16726563 44.94953125 155 45 C154.4884967 51.51357362 153.26258105 57.03223223 150.9375 63.125 C150.47331665 64.35561157 150.47331665 64.35561157 149.99975586 65.61108398 C145.32888028 77.65678037 139.51625591 88.20540546 131 98 C130.54496094 98.598125 130.08992187 99.19625 129.62109375 99.8125 C121.78905317 109.91232546 110.6534108 116.31330218 99 121 C98.175 121.3609375 97.35 121.721875 96.5 122.09375 C80.08643844 128.04366606 58.96892804 124.92731156 43.43701172 117.82861328 C32.47141472 112.61823365 22.31454996 106.81962219 13 99 C11.7696108 97.9946943 10.53913704 96.98949209 9.30859375 95.984375 C8.03727635 94.92923172 6.76772024 93.87196244 5.5 92.8125 C4.6174353 92.08172241 4.6174353 92.08172241 3.71704102 91.33618164 C-11.40595699 78.40333541 -16.73598187 52.00403094 -19 33 C-20.78591829 9.17509003 -20.78591829 9.17509003 -15.79296875 1.03125 C-11.23772515 -1.58875939 -5.02161093 -0.61523048 0 0 Z " fill="#FCFCFC" transform="translate(331,296)"/>
<path d="M0 0 C5.60556909 5.88584754 8.84932632 13.63231204 8.71484375 21.74609375 C8.5 23.625 8.5 23.625 7.3125 25.6875 C5.5 26.625 5.5 26.625 3.25 26.75 C0.2664798 25.52946901 -0.84662221 24.34062804 -3 22 C-4.72973253 20.10475944 -4.72973253 20.10475944 -6.5 18.625 C-9.15904469 18.37346741 -9.15904469 18.37346741 -11.5 19.625 C-15.19839335 21.14228958 -18.52695682 22.07062188 -22.5 22.625 C-22.17 24.275 -21.84 25.925 -21.5 27.625 C-16.80976546 27.05893721 -12.15499974 26.43962495 -7.5 25.625 C-8.11001074 29.02580987 -9.36868604 31.05511745 -11.5 33.75 C-15.01606882 38.22960691 -16.12100928 40.72541184 -15.5 46.625 C-14.675 47.07875 -13.85 47.5325 -13 48 C-12.175 48.53625 -11.35 49.0725 -10.5 49.625 C-10.20207143 51.94172811 -10.31111861 54.04709625 -10.51953125 56.37109375 C-10.49702493 58.96832364 -9.8062774 60.41088503 -8.5 62.625 C-9.06589844 62.96273437 -9.63179687 63.30046875 -10.21484375 63.6484375 C-10.94832031 64.09445312 -11.68179688 64.54046875 -12.4375 65 C-13.53384766 65.66128906 -13.53384766 65.66128906 -14.65234375 66.3359375 C-16.63772272 67.5023984 -16.63772272 67.5023984 -17.5 69.625 C-12.19627482 68.53788533 -12.19627482 68.53788533 -8.1875 65.0625 C-4.32105815 61.55572716 -0.56595386 61.73320484 4.5 61.625 C4.768125 62.57375 5.03625 63.5225 5.3125 64.5 C6.24986588 67.87767273 6.24986588 67.87767273 9.5 69.625 C15.42946622 70.55867873 20.74733202 69.19734331 26.3359375 67.28125 C28.5 66.625 28.5 66.625 31.5 66.625 C31.974375 67.264375 32.44875 67.90375 32.9375 68.5625 C34.72490611 70.92187606 35.63667247 71.23005827 38.5 71.625 C36.85 69.645 35.2 67.665 33.5 65.625 C37.46 64.635 37.46 64.635 41.5 63.625 C41.17 62.635 40.84 61.645 40.5 60.625 C34.84341512 61.0151093 29.8701346 62.03256395 24.4375 63.6875 C19.19080078 65.2473295 14.94745259 66.25355222 9.5 65.625 C8.51 64.635 8.51 64.635 7.5 63.625 C7.6600815 60.62145214 7.93230481 59.13719266 10.19555664 57.09521484 C10.92637451 56.67965332 11.65719238 56.2640918 12.41015625 55.8359375 C13.63750488 55.13754761 13.63750488 55.13754761 14.88964844 54.42504883 C15.77168945 53.95478271 16.65373047 53.4845166 17.5625 53 C18.90296387 52.27043091 18.90296387 52.27043091 20.27050781 51.52612305 C28.19742028 47.40708532 35.62499195 45.48027312 44.5 44.625 C44.5 43.635 44.5 42.645 44.5 41.625 C32.09876434 40.38487643 20.72658528 47.22804303 10.33666992 53.23388672 C5.39030421 55.99795484 0.30739116 58.34754155 -5.5 57.625 C-7.24536133 56.29394531 -7.24536133 56.29394531 -8.5 54.625 C-8.6875 51.9375 -8.6875 51.9375 -8.5 49.625 C-6.6128125 49.13 -6.6128125 49.13 -4.6875 48.625 C0.54059159 46.89596031 4.39912547 43.9758691 8.7578125 40.6796875 C17.08278117 34.44189047 25.67440093 30.83205509 35.5 27.625 C36.49 27.295 37.48 26.965 38.5 26.625 C38.5 25.635 38.5 24.645 38.5 23.625 C24.46057389 25.28680962 13.49918729 30.98463547 2.53662109 39.57373047 C-2.20407499 43.17118288 -5.50735601 44.48670822 -11.5 44.625 C-12.5 43.625 -12.5 43.625 -12.734375 41.33203125 C-12.46007041 38.16381328 -11.659797 36.82265397 -9.75 34.3125 C-9.23953125 33.61511719 -8.7290625 32.91773438 -8.203125 32.19921875 C-6.5 30.625 -6.5 30.625 -2.5 30.625 C-1.51 31.12 -1.51 31.12 -0.5 31.625 C6.08674214 32.33409775 6.08674214 32.33409775 12 29.9375 C15.7488744 24.1579853 15.73564629 19.36710223 15.5 12.625 C23.84480083 7.76731968 31.87726329 6.0590103 41.5 7.625 C44.58036053 9.3950309 46.9946606 11.1196606 49.5 13.625 C49.85831405 17.74561152 49.30537852 20.01424296 47.5 23.625 C47.33275263 26.79195956 47.33275263 26.79195956 47.5 29.625 C48.139375 29.851875 48.77875 30.07875 49.4375 30.3125 C51.5 31.625 51.5 31.625 52.25 33.875 C52.5 36.625 52.5 36.625 52.3125 39.625 C52.21500263 42.76218565 52.21500263 42.76218565 54.5 45.0625 C56.5 47.625 56.5 47.625 56.9375 51.1875 C56.48297008 54.75880652 56.11228967 56.19930245 53.5 58.625 C51.3125 59.375 51.3125 59.375 49.5 59.625 C49.4175 60.32625 49.335 61.0275 49.25 61.75 C47.5311127 68.33906799 42.89850742 72.79119297 37.5 76.625 C33.84810836 78.40185454 30.01794184 79.61817043 26.171875 80.90234375 C19.14216781 83.40099818 13.68216955 86.66260013 10.28125 93.53515625 C7.691688 100.13716192 6.40709083 107.13453127 5 114.0625 C4.77505356 115.14590164 4.77505356 115.14590164 4.54556274 116.25119019 C0.604512 135.23328655 -2.28907101 154.36664486 -4.5 173.625 C-21.78876344 171.05208058 -36.68949429 152.41048773 -46.625 139.4375 C-47.20507812 138.68082031 -47.78515625 137.92414063 -48.3828125 137.14453125 C-50.50845321 132.35069118 -48.68791152 127.93238199 -46.9765625 123.2421875 C-46.36368176 121.65978353 -45.74632712 120.07910662 -45.125 118.5 C-42.26079197 110.96975253 -39.93725486 103.57162846 -38.5 95.625 C-38.25695633 94.4090641 -38.25695633 94.4090641 -38.00900269 93.16856384 C-36.52424707 85.22548845 -36.25192296 77.59667517 -36.33984375 69.53125 C-36.34779405 67.53125297 -36.35573887 65.53125589 -36.36337376 63.53125763 C-36.37638686 60.76185115 -36.39859675 57.99254996 -36.42095947 55.22320557 C-36.45916424 50.37683873 -36.48760525 45.53043004 -36.50868225 40.68395996 C-36.52077258 38.11499791 -36.53820471 35.54605319 -36.56199646 32.97717285 C-36.67645601 12.26820214 -36.67645601 12.26820214 -33.34375 7.61328125 C-23.08777156 0.44254907 -12.50863815 -4.91410784 0 0 Z " fill="#FBFBFB" transform="translate(630.5,529.375)"/>
<path d="M0 0 C2.94261071 1.37502955 5.4997082 2.97771045 8.18847656 4.80004883 C9.22907227 5.50427979 10.26966797 6.20851074 11.34179688 6.93408203 C12.44869906 7.69212301 13.55513568 8.45084422 14.66113281 9.21020508 C15.50291077 9.78585709 15.50291077 9.78585709 16.36169434 10.37313843 C28.98267372 19.01427586 40.72381858 28.10810287 51.86425781 38.59301758 C57.3674513 44.01647336 57.3674513 44.01647336 63.72363281 48.27270508 C64.35644531 51.00317383 64.35644531 51.00317383 64.84863281 54.46020508 C65.01621094 55.58813477 65.18378906 56.71606445 65.35644531 57.87817383 C65.69888395 61.04390978 65.79120416 64.09202544 65.72363281 67.27270508 C58.05461873 68.12481775 58.05461873 68.12481775 54.50878906 65.85473633 C53.0396225 64.60873431 51.5762712 63.35584995 50.11816406 62.09692383 C45.18744076 58.34056529 39.33565152 56.55256422 33.22363281 55.89770508 C30.47992219 56.12813582 30.47992219 56.12813582 27.72363281 58.27270508 C27.14017806 61.23017 27.14017806 61.23017 27.72363281 64.27270508 C30.8542148 68.08384837 36.10091504 68.4331089 40.72363281 69.27270508 C36.98837198 72.51989183 32.69964166 74.08996147 28.16113281 75.89770508 C27.39349609 76.2096582 26.62585938 76.52161133 25.83496094 76.84301758 C18.63039594 79.75750595 12.60200581 81.44406989 4.72363281 80.27270508 C1.7144721 78.78851199 -0.86131628 77.05144612 -3.58496094 75.09692383 C-7.53824162 72.41741428 -11.78847781 70.84005907 -16.27636719 69.27270508 C-15.28636719 67.78770508 -15.28636719 67.78770508 -14.27636719 66.27270508 C-13.85961199 63.23059077 -13.85961199 63.23059077 -14.27636719 60.27270508 C-18.36622531 57.546133 -21.47416008 57.65723233 -26.27636719 58.27270508 C-30.08260064 59.44629373 -33.66755697 60.95465955 -36.76904297 63.49560547 C-41.69364181 67.4700818 -45.67896039 68.05474518 -51.90136719 68.33520508 C-60.59194949 68.95459265 -69.49327634 69.85542412 -77.16699219 74.38989258 C-80.2999553 75.70109566 -83.15352342 75.46016515 -86.52636719 75.39770508 C-87.78964844 75.3796582 -89.05292969 75.36161133 -90.35449219 75.34301758 C-91.31871094 75.31981445 -92.28292969 75.29661133 -93.27636719 75.27270508 C-89.40957499 71.30299446 -85.34978523 67.63774141 -81.15136719 64.02270508 C-80.48830566 63.44987793 -79.82524414 62.87705078 -79.14208984 62.28686523 C-74.49155639 58.28320627 -69.77669184 54.3680565 -65.00683594 50.50708008 C-61.95670146 48.01111881 -58.96051726 45.45730637 -55.96386719 42.89770508 C-51.52795443 39.11467444 -47.01042319 35.46728011 -42.40136719 31.89770508 C-36.63296109 27.42587844 -31.10781881 22.71983364 -25.61645508 17.91357422 C-21.32589583 14.16377076 -16.9837543 10.50622178 -12.48730469 7.00317383 C-10.98771948 5.82947021 -9.51398392 4.62212007 -8.06542969 3.38598633 C-7.02515625 2.52553711 -7.02515625 2.52553711 -5.96386719 1.64770508 C-5.36960937 1.13981445 -4.77535156 0.63192383 -4.16308594 0.10864258 C-2.27636719 -0.72729492 -2.27636719 -0.72729492 0 0 Z " fill="#FCFCFC" transform="translate(422.2763671875,211.727294921875)"/>
<path d="M0 0 C4.2392143 4.59346619 3.8505652 11.00702837 3.62890625 16.91015625 C2.35185018 26.05313736 -2.13836346 33.31522243 -9.296875 39.078125 C-17.26736663 44.23690359 -26.3890015 47.50707136 -35.91015625 45.76953125 C-45.23831404 42.70070253 -50.24824285 37.22394233 -54.66015625 28.70703125 C-59.69082075 18.01484722 -59.69082075 18.01484722 -58.91015625 11.76953125 C-56.56712376 7.43058219 -53.89186884 4.64521256 -49.91015625 1.76953125 C-49.58015625 2.42953125 -49.25015625 3.08953125 -48.91015625 3.76953125 C-48.25015625 3.76953125 -47.59015625 3.76953125 -46.91015625 3.76953125 C-46.45640625 2.98578125 -46.00265625 2.20203125 -45.53515625 1.39453125 C-43.73781432 -1.50886725 -43.09912246 -2.19620944 -39.91015625 -3.23046875 C-27.75823989 -5.00752319 -10.756318 -6.9289165 0 0 Z " fill="#F9F9F9" transform="translate(420.91015625,295.23046875)"/>
<path d="M0 0 C1.28390625 0.02707031 1.28390625 0.02707031 2.59375 0.0546875 C3.2228125 0.07789063 3.851875 0.10109375 4.5 0.125 C1.79783472 3.71537702 -0.96618918 6.48395165 -4.5 9.25 C-8.64989249 12.57212138 -12.6161136 16.00235308 -16.5 19.625 C-20.16565062 23.03817108 -23.89716281 26.31103075 -27.8125 29.4375 C-33.85320665 34.29632927 -39.4376286 39.60009819 -45.07421875 44.9140625 C-47.50658163 47.20465188 -49.96432519 49.44840768 -52.5 51.625 C-57.13294476 55.6077069 -61.54938669 59.82463761 -66.00292969 64.00512695 C-69.20300498 67.00289403 -72.41369283 69.96560979 -75.75 72.8125 C-80.10645018 76.54660015 -84.07360905 80.670651 -88.08203125 84.76953125 C-91.27743402 87.88233879 -92.65104247 89.09622178 -97.1875 89.25 C-98.280625 89.20875 -99.37375 89.1675 -100.5 89.125 C-95.53462835 71.89223958 -84.70550383 57.94450021 -72.5 45.125 C-71.99339844 44.59116699 -71.48679687 44.05733398 -70.96484375 43.50732422 C-63.2378505 35.41727189 -55.22856088 28.07793909 -46.23681641 21.41748047 C-44.51035624 20.13270677 -42.80785335 18.82034499 -41.10546875 17.50390625 C-29.63086755 8.79359597 -14.90617364 -0.41406038 0 0 Z " fill="#FAFAFA" transform="translate(417.5,198.875)"/>
<path d="M0 0 C0.66 0 1.32 0 2 0 C2.24326609 14.40135268 1.99216695 28.69378129 1.0625 43.0625 C1.01893372 43.7433667 0.97536743 44.4242334 0.93048096 45.12573242 C0.5561363 50.8929744 0.16712291 56.64681878 -0.5 62.38818359 C-1.0061562 66.83885927 -1.30226842 71.28156633 -1.53515625 75.75390625 C-1.57813339 76.54022934 -1.62111053 77.32655243 -1.66539001 78.13670349 C-1.80013229 80.61184746 -1.93138024 83.08716176 -2.0625 85.5625 C-2.15406428 87.25587197 -2.24585914 88.94923148 -2.33789062 90.64257812 C-2.56125511 94.76157986 -2.78148923 98.88073805 -3 103 C-2.04867187 102.97808594 -1.09734375 102.95617187 -0.1171875 102.93359375 C3 103 3 103 4.875 104.0625 C6.66830867 107.15097604 6.42841969 109.51143969 6 113 C4.375 115.4375 4.375 115.4375 2 117 C0.00096138 117.06200492 -2.0011718 117.06845302 -4 117 C-4.00364563 117.80464691 -4.00729126 118.60929382 -4.01104736 119.43832397 C-4.04907101 127.05843749 -4.10608479 134.67806983 -4.18390274 142.29787254 C-4.22324488 146.21438535 -4.25549768 150.13067779 -4.27099609 154.04736328 C-4.28625106 157.83427321 -4.32085008 161.62057676 -4.36830902 165.40721512 C-4.38303252 166.844679 -4.39103578 168.28222949 -4.39188385 169.71976852 C-4.41235964 187.04003228 -4.41235964 187.04003228 -9 193 C-11.51715088 193.88119507 -11.51715088 193.88119507 -14 194 C-16 192 -16 192 -16.24291992 189.93823242 C-16.11287267 162.96235248 -15.04464504 136.09416191 -13.125 109.1875 C-12.99344009 107.30715561 -12.99344009 107.30715561 -12.85922241 105.38882446 C-11.66420962 88.31288854 -10.33739104 71.26133971 -8.61328125 54.23046875 C-8.5148291 53.20356934 -8.41637695 52.17666992 -8.31494141 51.11865234 C-8.09112034 48.90230326 -7.83475575 46.68913496 -7.55615234 44.47900391 C-7.42805176 43.32706543 -7.29995117 42.17512695 -7.16796875 40.98828125 C-7.04059326 39.95872314 -6.91321777 38.92916504 -6.78198242 37.8684082 C-7.06582495 34.13395596 -8.53474237 32.7388254 -11 30 C-12.484375 26.625 -12.484375 26.625 -13.75 23 C-14.17796875 21.80375 -14.6059375 20.6075 -15.046875 19.375 C-15.89891252 16.3579491 -16.21143916 14.10110773 -16 11 C-12.11002809 12.49746706 -10.53051948 14.70422078 -8.25 18.125 C-7.63640625 19.03507813 -7.0228125 19.94515625 -6.390625 20.8828125 C-5.93171875 21.58148437 -5.4728125 22.28015625 -5 23 C-4.88406494 22.40985107 -4.76812988 21.81970215 -4.64868164 21.21166992 C-4.12197433 18.5365443 -3.59227135 15.86202044 -3.0625 13.1875 C-2.88009766 12.25873047 -2.69769531 11.32996094 -2.50976562 10.37304688 C-2.33251953 9.48037109 -2.15527344 8.58769531 -1.97265625 7.66796875 C-1.81031494 6.84578857 -1.64797363 6.0236084 -1.48071289 5.17651367 C-1 3 -1 3 0 0 Z " fill="#090909" transform="translate(224,643)"/>
<path d="M0 0 C1.65 0 3.3 0 5 0 C5.02492036 5.22867495 5.04296332 10.45731449 5.05493164 15.68603516 C5.05992684 17.46078088 5.06672528 19.23552255 5.07543945 21.01025391 C5.16623243 39.99132695 5.16623243 39.99132695 4 48 C2.42342568 49.57657432 0.87874113 49.32217152 -1.3125 49.4375 C-9.8998458 49.3758093 -17.72184108 44.60472319 -24 39 C-26.08834651 34.96733087 -27 32.56397781 -27 28 C-24.50992199 25.17342497 -22.1356422 23.09042814 -19 21 C-16.5 21.0625 -16.5 21.0625 -14 22 C-12.25 24.4375 -12.25 24.4375 -11 27 C-10.67 27.66 -10.34 28.32 -10 29 C-8.35 28.67 -6.7 28.34 -5 28 C-4.65282787 24.26789965 -4.7077211 22.45929542 -6.75 19.25 C-10.16126874 15.83873126 -12.28810928 14.89978319 -17.0625 14.8125 C-20.90317085 14.81730941 -20.90317085 14.81730941 -24 16 C-22.02504535 9.99109543 -18.04909047 6.61978345 -13 3 C-9.4375 2 -9.4375 2 -7 2 C-4 8.75 -4 8.75 -4 11 C-3.01 11 -2.02 11 -1 11 C-0.67 7.37 -0.34 3.74 0 0 Z " fill="#F9F9F9" transform="translate(484,287)"/>
<path d="M0 0 C0.90105469 0.00902344 1.80210937 0.01804687 2.73046875 0.02734375 C3.41753906 0.03894531 4.10460937 0.05054688 4.8125 0.0625 C5.625 2.125 5.625 2.125 5.8125 5.0625 C0.38201902 15.1744301 -10.82639142 20.16441587 -20.625 25.3125 C-22.56380967 26.33359792 -24.50012834 27.35944345 -26.43359375 28.390625 C-27.27591553 28.8330957 -28.1182373 29.27556641 -28.98608398 29.73144531 C-31.07659962 30.99544567 -32.49131346 32.3318231 -34.1875 34.0625 C-36.45703125 34.6875 -36.45703125 34.6875 -39 35.0625 C-42.34278146 35.63179466 -44.47569225 36.20659612 -47.5625 37.75 C-50.1875 39.0625 -50.1875 39.0625 -52.19140625 38.85546875 C-54.64518962 37.8806781 -55.34057435 36.89234408 -56.75 34.6875 C-58.37308778 32.18634834 -60.01653277 30.11390672 -62.1875 28.0625 C-55.0546875 24.49609375 -47.921875 20.9296875 -40.7890625 17.36328125 C-39.86923584 16.90332764 -38.94940918 16.44337402 -38.00170898 15.96948242 C-36.12374669 15.03058273 -34.24565395 14.0919439 -32.36743164 13.15356445 C-28.01923748 10.98079756 -23.67267347 8.80500758 -19.33203125 6.6171875 C-18.59533203 6.24658203 -17.85863281 5.87597656 -17.09960938 5.49414062 C-15.7393963 4.80960549 -14.37996892 4.12350598 -13.02148438 3.43554688 C-8.46122869 1.14314708 -5.10639488 -0.06631682 0 0 Z " fill="#FAFAFA" transform="translate(696.1875,496.9375)"/>
<path d="M0 0 C0 0.99 0 1.98 0 3 C-4.3817409 5.31488198 -8.60765033 7.25097662 -13.3125 8.8125 C-21.15240827 11.58144267 -27.7283827 16.15277544 -34.1875 21.3125 C-37.96763423 24.24738682 -41.31459896 25.16332124 -46 26 C-46.16687448 28.41645782 -46.16687448 28.41645782 -46 31 C-45.34 31.66 -44.68 32.32 -44 33 C-36.35952134 32.91752182 -31.23515248 30.41246412 -24.6875 26.6875 C-5.31870779 16.12933017 -5.31870779 16.12933017 6 17 C6.5625 18.9375 6.5625 18.9375 7 21 C6 22 6 22 3.10546875 22.3671875 C-9.53676534 24.00576221 -19.20394477 29.43406579 -30 36 C-29.67 37.65 -29.34 39.3 -29 41 C-22.89353468 41.27568692 -18.14843932 40.42101848 -12.375 38.5 C-7.42816626 36.87159388 -3.28969696 35.66626518 2 36 C2.495 37.98 2.495 37.98 3 40 C1.02 40.99 -0.96 41.98 -3 43 C-2.505 43.45375 -2.01 43.9075 -1.5 44.375 C0 46 0 46 0 48 C-2.375 47.75 -2.375 47.75 -5 47 C-6.1640625 44.953125 -6.1640625 44.953125 -7 43 C-8.25103516 43.433125 -8.25103516 43.433125 -9.52734375 43.875 C-22.84196839 48.26745349 -22.84196839 48.26745349 -29 47 C-32.0625 45.3125 -32.0625 45.3125 -34 43 C-34.12109375 40.35546875 -34.12109375 40.35546875 -34 38 C-40.6577878 38.77696518 -44.64462146 40.03218967 -49.4609375 44.734375 C-51 46 -51 46 -53.9375 46.375 C-54.9584375 46.189375 -54.9584375 46.189375 -56 46 C-54.549046 42.17475764 -52.61818068 40.80909034 -49 39 C-48.34 39 -47.68 39 -47 39 C-47.495 38.484375 -47.99 37.96875 -48.5 37.4375 C-50.51605414 34.16141202 -50.28001855 31.78025046 -50 28 C-49.67 27.34 -49.34 26.68 -49 26 C-49.804375 25.690625 -50.60875 25.38125 -51.4375 25.0625 C-54 24 -54 24 -55 23 C-55.43006993 15.4020979 -55.43006993 15.4020979 -53 12 C-50.875 10.25 -50.875 10.25 -49 9 C-48.34 9.33 -47.68 9.66 -47 10 C-47.495 10.721875 -47.99 11.44375 -48.5 12.1875 C-50.07919285 15.14848659 -50.28178312 16.71253029 -50 20 C-42.63198241 19.7569141 -38.73028474 17.17338731 -32.9375 12.8125 C-22.67893166 5.45455416 -12.99000741 -0.49688553 0 0 Z " fill="#111111" transform="translate(669,553)"/>
<path d="M0 0 C19.37480021 4.13264245 34.45793795 12.28317581 46 29 C50.27928303 35.92696727 54.1697423 42.64469789 53 51 C49.81292649 48.30869348 46.65654454 45.61571198 43.61328125 42.76171875 C28.49302699 28.59071812 11.43753179 17.32588793 -8 10 C-8 9.34 -8 8.68 -8 8 C-6.52295788 6.74772516 -5.04172601 5.49833478 -3.5078125 4.31640625 C-1.73237056 2.88235909 -1.73237056 2.88235909 0 0 Z " fill="#F8F8F8" transform="translate(432,199)"/>
<path d="M0 0 C3.06987962 1.13699245 4.21168007 2.26316981 6.3125 4.875 C9.63954932 8.98844279 13.1852599 11.60236211 18.4609375 12.34765625 C23.70764364 12.5288488 27.53453109 11.97697927 32 9 C32.680625 8.278125 33.36125 7.55625 34.0625 6.8125 C36 5 36 5 38.5625 4.5625 C41 5 41 5 42.875 6.125 C44 8 44 8 44.25 10.8125 C42.33186943 15.70373295 38.46316118 17.50963107 34 20 C33.39027344 20.37640625 32.78054688 20.7528125 32.15234375 21.140625 C26.18751894 23.52222474 17.93305672 23.06209915 11.96875 20.90234375 C6.83718896 18.00424828 2.43072004 14.47767897 0 9 C-0.69905444 6.22361358 -0.90021023 3.89390341 -1 1 C-0.67 0.67 -0.34 0.34 0 0 Z " fill="#080808" transform="translate(415,363)"/>
<path d="M0 0 C0 0.99 0 1.98 0 3 C-4.3817409 5.31488198 -8.60765033 7.25097662 -13.3125 8.8125 C-21.12406244 11.57143133 -27.69472998 16.0827451 -34.0625 21.3125 C-38.31592095 24.57025362 -42.67172987 25.75982756 -48 26 C-53.18181818 24.81818182 -53.18181818 24.81818182 -55 23 C-55.43006993 15.4020979 -55.43006993 15.4020979 -53 12 C-50.875 10.25 -50.875 10.25 -49 9 C-48.34 9.33 -47.68 9.66 -47 10 C-47.495 10.721875 -47.99 11.44375 -48.5 12.1875 C-50.07919285 15.14848659 -50.28178312 16.71253029 -50 20 C-42.63198241 19.7569141 -38.73028474 17.17338731 -32.9375 12.8125 C-22.67893166 5.45455416 -12.99000741 -0.49688553 0 0 Z " fill="#0B0B0B" transform="translate(669,553)"/>
<path d="M0 0 C5.09316381 1.94025288 9.01566099 6.52349149 12 11 C12.4375 14.5 12.4375 14.5 12 17 C9.69 17.33 7.38 17.66 5 18 C4.64808594 17.43410156 4.29617188 16.86820312 3.93359375 16.28515625 C1.38013436 12.49163563 -0.1871388 10.33385371 -4.5 8.5625 C-8.25152923 9.03144115 -8.83926794 9.32586322 -11.3125 11.9375 C-14.21188712 15.7724227 -15.17612441 19.30390912 -16 24 C-17.32 23.67 -18.64 23.34 -20 23 C-20.82780225 15.79505449 -19.61602569 11.2707597 -15.80078125 5.12890625 C-11.30520311 -0.18582279 -6.58217348 -0.84386839 0 0 Z " fill="#070707" transform="translate(402,302)"/>
<path d="M0 0 C2.0625 -0.375 2.0625 -0.375 5 0 C6.60144368 1.36293079 8.19523488 2.73602503 9.74609375 4.15625 C21.98768356 14.17016749 40.39483656 21.9575975 56.0625 23.4375 C59 24 59 24 60.4375 26.0625 C60.7159375 27.0215625 60.7159375 27.0215625 61 28 C60 29 60 29 56.03515625 29.21875 C50.87208843 29.15348507 46.34300334 28.03554316 41.4375 26.5 C40.5719751 26.23300293 39.7064502 25.96600586 38.81469727 25.69091797 C25.86969481 21.52768915 14.68197182 15.42232394 4 7 C3.24203125 6.51144531 2.4840625 6.02289063 1.703125 5.51953125 C1.14109375 5.01808594 0.5790625 4.51664062 0 4 C0 2.68 0 1.36 0 0 Z " fill="#F0F0F0" transform="translate(325,423)"/>
<path d="M0 0 C3.77235562 0.61964686 6.89824003 1.73968001 10.375 3.3125 C20.18832324 7.49919524 30.58543947 9.80746094 41 12 C41.495 14.475 41.495 14.475 42 17 C26.02278041 16.32299917 12.86672714 11.59719625 -1 4 C-0.67 2.68 -0.34 1.36 0 0 Z " fill="#EFEFEF" transform="translate(307,443)"/>
<path d="M0 0 C0.61875 0.33 1.2375 0.66 1.875 1 C7.12042565 2.67853621 12.76655404 2.74448199 18 1 C18 1.66 18 2.32 18 3 C15.69378527 5.09850435 13.06084099 6.78943545 10.5 8.5625 C9.80390625 9.06974609 9.1078125 9.57699219 8.390625 10.09960938 C3.53109094 13.47878537 -0.05639455 14.83563038 -6 15 C-7 14 -7 14 -7.24609375 11.703125 C-6.9530365 8.48414696 -6.07870991 7.23586822 -4.0625 4.75 C-3.51722656 4.06421875 -2.97195313 3.3784375 -2.41015625 2.671875 C-1 1 -1 1 0 0 Z " fill="#F3F3F3" transform="translate(625,559)"/>
<path d="M0 0 C2 2 2 2 2.375 4.875 C2 8 2 8 0.3125 10.375 C-2 12 -2 12 -4.5 12.4375 C-7.64165008 11.88771124 -8.84310412 11.38002304 -11 9 C-11.92863679 6.34000648 -12.45327864 3.77916691 -13 1 C-7.99921761 -2.17122786 -5.47418873 -2.21073006 0 0 Z " fill="#1D1D1D" transform="translate(485,481)"/>
<path d="M0 0 C2.4375 1.5625 2.4375 1.5625 4 4 C3.78571429 10.21428571 3.78571429 10.21428571 1 13 C-1.93188861 13.27922749 -4.15390647 13.47143881 -7 13 C-9.45636081 10.92744557 -9.88864581 9.63630966 -10.4375 6.5 C-9.41545969 0.65976965 -5.50319355 -0.91719892 0 0 Z " fill="#0A0A0A" transform="translate(570,716)"/>
<path d="M0 0 C3.4375 1 3.4375 1 5.4375 2.6875 C6.82656225 5.89970645 6.49271374 7.6936636 5.4375 11 C3.75 12.9375 3.75 12.9375 1.4375 14 C-2.06239972 13.92857348 -3.85513143 13.66021066 -6.4375 11.25 C-7.81113504 8.50272993 -8.09312116 7.03212094 -7.5625 4 C-5.24958684 0.48437199 -4.25397332 0 0 0 Z " fill="#101010" transform="translate(208.5625,521)"/>
<path d="M0 0 C1.9375 1.125 1.9375 1.125 3 3 C3.42030443 6.29238472 3.295454 8.33957342 1.9375 11.375 C0 13 0 13 -3.5 13.4375 C-7 13 -7 13 -8.9375 11.9375 C-10.6140629 8.88023824 -10.36528977 6.4093712 -10 3 C-7.77766882 -1.05248626 -4.20052866 -0.45005664 0 0 Z " fill="#040404" transform="translate(249,498)"/>
<path d="M0 0 C3.375 0.9375 3.375 0.9375 5.375 3.9375 C5.70002803 7.05776907 5.88651479 9.08497535 4.25 11.8125 C1.45053259 13.49218045 -0.42304064 13.39492277 -3.625 12.9375 C-6.4162125 10.95427007 -7.45097224 9.80763879 -8.125 6.4375 C-7.12997193 1.46235967 -5.00784378 -0.08634213 0 0 Z " fill="#0C0C0C" transform="translate(192.625,742.0625)"/>
<path d="M0 0 C1.9375 1.0625 1.9375 1.0625 3 3 C2.87746086 6.43109583 2.62380951 8.98220554 0.8125 11.9375 C-1.94295679 13.55276777 -3.87673586 13.45547602 -7 13 C-9.3151023 10.91640793 -9.90276165 9.55564772 -10.4375 6.5 C-9.40858438 0.62048215 -5.51867775 -0.82193073 0 0 Z " fill="#060606" transform="translate(496,802)"/>
<path d="M0 0 C2 1.625 2 1.625 3 4 C2.92818703 7.51883536 2.62670668 9.30614617 0.25 11.9375 C-2 13 -2 13 -4.5625 12.875 C-7.24955992 11.91041439 -8.43467041 11.38918727 -10 9 C-10.38976435 5.88188517 -10.50422245 3.88980433 -8.9375 1.125 C-5.85928089 -0.66235303 -3.47093932 -0.43386742 0 0 Z " fill="#0A0A0A" transform="translate(200,814)"/>
<path d="M0 0 C3.0625 0.3125 3.0625 0.3125 4.9375 1.4375 C6.61718045 4.23696741 6.51992277 6.11054064 6.0625 9.3125 C4.4375 11.75 4.4375 11.75 2.0625 13.3125 C-1.0625 13.25 -1.0625 13.25 -3.9375 12.3125 C-5.9375 9.3125 -5.9375 9.3125 -5.6875 5.75 C-4.76858783 1.53831922 -4.3470067 0.46244752 0 0 Z " fill="#090909" transform="translate(494.9375,743.6875)"/>
<path d="M0 0 C3.5625 0.3125 3.5625 0.3125 5.5625 1.375 C7.19628851 4.54046524 6.41517564 6.96270286 5.5625 10.3125 C2.32996204 12.46752531 1.31099077 12.78106135 -2.4375 12.3125 C-4.25 11.25 -4.25 11.25 -5.4375 9.3125 C-5.75 5.75 -5.75 5.75 -5.4375 2.3125 C-3.4375 0.3125 -3.4375 0.3125 0 0 Z " fill="#0A0A0A" transform="translate(552.4375,651.6875)"/>
<path d="M0 0 C3.0625 0.25 3.0625 0.25 6.0625 2.25 C6.71075345 8.19232331 6.71075345 8.19232331 4.875 11.1875 C2.35695572 12.66359492 0.93773324 12.74089348 -1.9375 12.25 C-4.3125 10.625 -4.3125 10.625 -5.9375 8.25 C-5.74586015 3.45900384 -5.24169161 0.44610141 0 0 Z " fill="#0A0A0A" transform="translate(261.9375,612.75)"/>
<path d="M0 0 C3.125 0.375 3.125 0.375 5.5625 2 C7.125 4.375 7.125 4.375 7 7.5625 C6.566875 8.9546875 6.566875 8.9546875 6.125 10.375 C3.28416359 11.79541821 1.27022722 11.68952272 -1.875 11.375 C-4.3125 9.6875 -4.3125 9.6875 -5.875 7.375 C-5.66326486 2.92856212 -4.65145745 0.60671184 0 0 Z " fill="#0A0A0A" transform="translate(235.875,795.625)"/>
<path d="M0 0 C1.875 1.1875 1.875 1.1875 3 3 C3.42317323 5.82115488 3.38718434 7.33950907 1.9375 9.8125 C-1.08503156 11.66501934 -3.54932719 11.37643703 -7 11 C-9 8 -9 8 -8.75 4.375 C-8.5025 3.26125 -8.255 2.1475 -8 1 C-5.20129973 -0.39935013 -3.09501208 -0.25265405 0 0 Z " fill="#070707" transform="translate(545,558)"/>
<path d="M0 0 C1.875 1.625 1.875 1.625 3 4 C2.875 7.125 2.875 7.125 2 10 C-1 12 -1 12 -3.5625 11.75 C-6 11 -6 11 -8 9 C-8.333728 5.86295684 -8.52849028 3.83445834 -6.8125 1.125 C-4.31963619 -0.42229478 -2.88032665 -0.50405716 0 0 Z " fill="#0E0E0E" transform="translate(165,693)"/>
<path d="M0 0 C3.5 0.25 3.5 0.25 5.5 2.25 C5.875 5.1875 5.875 5.1875 5.5 8.25 C3.8125 10.1875 3.8125 10.1875 1.5 11.25 C-1.87036311 11.00925978 -3.08798021 10.66201979 -5.5 8.25 C-5.75 5.25 -5.75 5.25 -5.5 2.25 C-3.5 0.25 -3.5 0.25 0 0 Z " fill="#0F0F0F" transform="translate(505.5,592.75)"/>
<path d="M0 0 C3.10903631 0.19844913 5.30285895 0.55023158 7.9375 2.25 C9 4 9 4 8.8125 6.5625 C8 9 8 9 6 11 C3.19015752 11.36023622 1.61758081 11.38332602 -0.8125 9.875 C-2.52849028 7.16554166 -2.333728 5.13704316 -2 2 C-1.34 1.34 -0.68 0.68 0 0 Z " fill="#0E0E0E" transform="translate(240,585)"/>
<path d="M0 0 C1.3260274 5.42465753 1.3260274 5.42465753 -0.0625 7.875 C-2.82101702 9.47671956 -4.8695827 9.33302312 -8 9 C-10 7 -10 7 -10.3125 4.5625 C-10 2 -10 2 -8.9375 0.125 C-5.88430685 -1.64782183 -3.33588292 -0.69235306 0 0 Z " fill="#060606" transform="translate(173,798)"/>
<path d="M0 0 C3.125 0.25 3.125 0.25 5.0625 1.4375 C6.125 3.25 6.125 3.25 5.9375 5.8125 C5.125 8.25 5.125 8.25 3.125 10.25 C0.125 10.5 0.125 10.5 -2.875 10.25 C-3.535 9.59 -4.195 8.93 -4.875 8.25 C-4.18322444 0.36375865 -4.18322444 0.36375865 0 0 Z " fill="#0A0A0A" transform="translate(251.875,726.75)"/>
<path d="M0 0 C1.875 1.1875 1.875 1.1875 3 3 C2.75546876 6.34192692 2.39456443 7.60543557 0 10 C-2.83386167 10.3633156 -4.40522151 10.3568671 -6.875 8.875 C-8 7 -8 7 -7.8125 3.875 C-7.544375 2.92625 -7.27625 1.9775 -7 1 C-4.45132831 -0.27433584 -2.82594567 -0.27570202 0 0 Z " fill="#0B0B0B" transform="translate(251,652)"/>
<path d="M0 0 C2.4375 0.8125 2.4375 0.8125 4.4375 2.8125 C4.80546448 5.68262296 4.81259409 7.22024618 3.25 9.6875 C1.4375 10.8125 1.4375 10.8125 -1.125 10.625 C-3.5625 9.8125 -3.5625 9.8125 -5.5625 7.8125 C-5.93046448 4.94237704 -5.93759409 3.40475382 -4.375 0.9375 C-2.5625 -0.1875 -2.5625 -0.1875 0 0 Z " fill="#0F0F0F" transform="translate(560.5625,777.1875)"/>
<path d="M0 0 C3 0.25 3 0.25 5 2.25 C5.36796448 5.12012296 5.37509409 6.65774618 3.8125 9.125 C2 10.25 2 10.25 -0.5625 10.0625 C-3 9.25 -3 9.25 -5 7.25 C-5.25 4.75 -5.25 4.75 -5 2.25 C-3 0.25 -3 0.25 0 0 Z " fill="#0D0D0D" transform="translate(278,797.75)"/>
<path d="M0 0 C0.625 2.8125 0.625 2.8125 1 6 C0.01 7.485 0.01 7.485 -1 9 C-4 9.375 -4 9.375 -7 9 C-9 6 -9 6 -8.75 2.875 C-8.37875 1.451875 -8.37875 1.451875 -8 0 C-5.13822943 -1.43088528 -3.06624227 -0.59991697 0 0 Z " fill="#0B0B0B" transform="translate(562,615)"/>
<path d="M0 0 C2.5 0.25 2.5 0.25 4.5 2.25 C4.75 5.25 4.75 5.25 4.5 8.25 C2.5 10.25 2.5 10.25 0.0625 10.5625 C-2.5 10.25 -2.5 10.25 -4.375 9.0625 C-5.5 7.25 -5.5 7.25 -5.3125 4.6875 C-4.22827241 1.43481722 -3.47807945 0.34780795 0 0 Z " fill="#101010" transform="translate(210.5,571.75)"/>
<path d="M0 0 C2.4375 0.75 2.4375 0.75 4.4375 2.75 C4.10778521 6.04714793 3.8148161 7.3726839 1.4375 9.75 C-1.0625 10 -1.0625 10 -3.5625 9.75 C-5.5625 7.75 -5.5625 7.75 -5.875 4.75 C-5.771875 3.76 -5.66875 2.77 -5.5625 1.75 C-2.5625 -0.25 -2.5625 -0.25 0 0 Z " fill="#0C0C0C" transform="translate(602.5625,733.25)"/>
<path d="M0 0 C0.42410156 0.39832031 0.84820313 0.79664063 1.28515625 1.20703125 C7.20880375 6.55784251 13.3702925 8.97579189 21 11 C20.67 11.99 20.34 12.98 20 14 C13.62802669 14.66374722 9.9647153 12.98839054 5 9 C3.01064124 7.07791424 1.59759413 5.29654156 0 3 C0 2.01 0 1.02 0 0 Z " fill="#131313" transform="translate(607,614)"/>
<path d="M0 0 C3.29714793 0.32971479 4.6226839 0.6226839 7 3 C6.67028521 6.29714793 6.3773161 7.6226839 4 10 C1.5 10.3125 1.5 10.3125 -1 10 C-3 7 -3 7 -2.75 4.4375 C-2 2 -2 2 0 0 Z " fill="#101010" transform="translate(174,639)"/>
<path d="M0 0 C1.9375 0.75 1.9375 0.75 3.9375 2.75 C3.60778521 6.04714793 3.3148161 7.3726839 0.9375 9.75 C-3.61805556 9.19444444 -3.61805556 9.19444444 -5.0625 7.75 C-5.3125 4.8125 -5.3125 4.8125 -5.0625 1.75 C-2.0625 -0.25 -2.0625 -0.25 0 0 Z " fill="#101010" transform="translate(503.0625,504.25)"/>
<path d="M0 0 C2.5 0.25 2.5 0.25 4.5 2.25 C4.75 4.75 4.75 4.75 4.5 7.25 C2.5 9.25 2.5 9.25 0 9.5 C-2.5 9.25 -2.5 9.25 -4.5 7.25 C-4.75 4.75 -4.75 4.75 -4.5 2.25 C-2.5 0.25 -2.5 0.25 0 0 Z " fill="#040404" transform="translate(512.5,681.75)"/>
<path d="M0 0 C3 0.125 3 0.125 4 1.125 C4.1875 3.5625 4.1875 3.5625 4 6.125 C3.34 6.785 2.68 7.445 2 8.125 C-2.55555556 7.56944444 -2.55555556 7.56944444 -4 6.125 C-4.125 3.625 -4.125 3.625 -4 1.125 C-3 0.125 -3 0.125 0 0 Z " fill="#0C0C0C" transform="translate(512,538.875)"/>
<path d="M0 0 C2.625 0.375 2.625 0.375 5 1 C5.625 3.375 5.625 3.375 6 6 C4 8 4 8 1.4375 8.1875 C-1 8 -1 8 -2 7 C-2.1875 4.5625 -2.1875 4.5625 -2 2 C-1.34 1.34 -0.68 0.68 0 0 Z " fill="#080808" transform="translate(176,597)"/>
<path d="M0 0 C2.00720923 0.28674418 4.0085944 0.61866701 6 1 C6.125 3.375 6.125 3.375 6 6 C5.34 6.66 4.68 7.32 4 8 C1.06546739 7.63318342 0.13562754 7.13562754 -2 5 C-1.46428571 1.46428571 -1.46428571 1.46428571 0 0 Z " fill="#141414" transform="translate(310,820)"/>
<path d="M0 0 C0.66 0.33 1.32 0.66 2 1 C1.30132812 1.67546875 0.60265625 2.3509375 -0.1171875 3.046875 C-1.02726562 3.93890625 -1.93734375 4.8309375 -2.875 5.75 C-3.77992188 6.63171875 -4.68484375 7.5134375 -5.6171875 8.421875 C-7.68076591 10.65459918 -8.72850705 12.31573711 -10 15 C-12.625 16.75 -12.625 16.75 -15 18 C-11.76869896 10.87213005 -5.53174141 5.39682089 0 0 Z " fill="#141414" transform="translate(344,268)"/>
<path d="M0 0 C0.66 0 1.32 0 2 0 C2 8.58 2 17.16 2 26 C1.67 26 1.34 26 1 26 C0.97494385 25.44538086 0.9498877 24.89076172 0.92407227 24.31933594 C0.80772073 21.79601157 0.68517246 19.27302464 0.5625 16.75 C0.52318359 15.87730469 0.48386719 15.00460937 0.44335938 14.10546875 C0.40146484 13.26113281 0.35957031 12.41679688 0.31640625 11.546875 C0.27974854 10.77182617 0.24309082 9.99677734 0.20532227 9.19824219 C0.06473538 6.99344993 0.06473538 6.99344993 -0.58227539 4.90332031 C-1 3 -1 3 0 0 Z " fill="#3A3A3A" transform="translate(224,643)"/>
<path d="M0 0 C0.66 0 1.32 0 2 0 C2 2.31 2 4.62 2 7 C1.01 7 0.02 7 -1 7 C-0.67 4.69 -0.34 2.38 0 0 Z " fill="#282828" transform="translate(224,643)"/>
</svg>
